<svg id="Capa_1" enable-background="new 0 0 511.984 511.984" height="512" viewBox="0 0 511.984 511.984" width="512" xmlns="http://www.w3.org/2000/svg" fill="#224da5"><g><path d="m357.516 62.697c-33.671-.758-66.013 8.935-93.548 28.018-40.226 27.875-88.23 38.729-135.171 30.558-2.688-.457-2.768-.496-3.27-.54-17.551-1.598-33.614-1.109-47.742 1.443-4.076.737-6.783 4.639-6.046 8.715s4.645 6.779 8.714 6.047c12.721-2.3 27.328-2.734 43.417-1.294l2.363.408c50.842 8.849 102.792-2.875 146.279-33.009 24.915-17.268 54.232-26.021 84.669-25.351 77.669 1.726 140.172 66.12 139.803 143.76v1.038c-.997 83.202-75.319 127.642-144.55 141.488-29.795 5.96-183.021 32.462-273.749-31.16-34.81-24.411-55.925-59.665-62.766-104.84-.402-2.364-.788-4.938-.875-7.485-.508-15.18 1.889-52.641 35.035-72.604 3.548-2.138 4.692-6.746 2.555-10.294-2.137-3.547-6.745-4.69-10.294-2.556-40.939 24.658-42.74 71.721-42.291 85.812.026 70.159-.066 65.978.074 66.972 16.887 119.466 122.487 161.508 244.242 161.506 52.318-.002 96.244-7.782 111.014-10.736 16.085-3.224 31.549-7.727 45.962-13.384 3.855-1.514 5.755-5.866 4.241-9.722-1.513-3.855-5.867-5.758-9.722-4.241-13.595 5.336-28.206 9.589-43.426 12.639-29.961 5.992-184.034 32.617-275.022-31.858-34.829-24.681-55.81-60.271-62.363-105.785v-7.378c38.224 85.443 135.502 110.571 229.269 110.57 52.339 0 96.313-7.795 111.058-10.744 57.548-11.51 114.79-41.168 141.527-93.703-1.767 58.521-39.179 92.884-70.542 111.459-3.564 2.111-4.741 6.711-2.631 10.275 2.117 3.575 6.721 4.735 10.275 2.631 47.313-28.024 77.331-71.252 77.979-126.904v-61.391c0-86.334-69.395-156.47-154.468-158.36z"/><path d="m35.939 223.102c.012.134.028.267.047.4 6.948 48.159 30.884 82.134 73.176 103.864 34.231 17.592 81.255 26.891 135.987 26.891 1.195-.095 49.105.823 103.341-10.023 67.701-13.549 127.569-53.503 128.355-122.018.789-67.793-54.353-124.424-122.94-124.424-25.167 0-49.345 7.54-69.92 21.806-49.607 34.379-107.486 45.609-161.176 36.306-1.046-.178-1.325-.252-1.867-.299-24.569-2.077-54.477-.123-70.986 18.315-16.281 18.203-14.297 46.065-14.017 49.182zm25.195-39.179c12.751-14.241 39.173-14.975 58.21-13.399.897.117 17.936 3.508 39.838 3.508 47.49 0 93.601-14.559 133.349-42.106 19.115-13.252 41.419-19.631 63.858-19.104 58.836 1.313 106.145 50.311 105.459 109.223-.704 61.131-56.412 95.497-116.3 107.481-68.921 13.787-167.446 16.405-229.53-15.5-37.594-19.317-58.909-49.561-65.154-92.447-.19-2.408-1.566-24.422 10.27-37.656z"/><path d="m354.186 288.48c37.499 0 68.007-30.512 68.007-68.017 0-37.499-30.508-68.007-68.007-68.007-37.505 0-68.018 30.508-68.018 68.007.001 37.505 30.513 68.017 68.018 68.017zm0-121.024c29.229 0 53.007 23.778 53.007 53.007 0 29.233-23.778 53.017-53.007 53.017-29.234 0-53.018-23.783-53.018-53.017.001-29.228 23.784-53.007 53.018-53.007z"/><path d="m125.059 246.877c4.142 0 7.5-3.357 7.5-7.5v-12.047c0-4.143-3.358-7.5-7.5-7.5s-7.5 3.357-7.5 7.5v12.048c0 4.142 3.358 7.499 7.5 7.499z"/><path d="m250.45 246.877c4.142 0 7.5-3.357 7.5-7.5v-12.047c0-4.143-3.358-7.5-7.5-7.5s-7.5 3.357-7.5 7.5v12.048c0 4.142 3.358 7.499 7.5 7.499z"/><path d="m209.939 243.937c2.718-3.125 2.387-7.862-.738-10.58-3.126-2.718-7.862-2.39-10.581.738-5.742 6.602-15.996 6.592-21.73 0-2.718-3.127-7.455-3.457-10.581-.738-3.125 2.718-3.456 7.455-.738 10.58 11.72 13.479 32.659 13.465 44.368 0z"/></g></svg>