<svg xmlns="http://www.w3.org/2000/svg" xmlns:xlink="http://www.w3.org/1999/xlink" width="253" zoomAndPan="magnify" viewBox="0 0 189.75 238.499993" height="318" preserveAspectRatio="xMidYMid meet" version="1.0"><defs><g/><clipPath id="e1ff6b0049"><path d="M 0.0742188 0 L 189.425781 0 L 189.425781 238 L 0.0742188 238 Z M 0.0742188 0 " clip-rule="nonzero"/></clipPath><clipPath id="25f0419ee7"><path d="M 13 0 L 181.742188 0 L 181.742188 237.253906 L 13 237.253906 Z M 13 0 " clip-rule="nonzero"/></clipPath><clipPath id="af350126e1"><path d="M 8.855469 52 L 14 52 L 14 66 L 8.855469 66 Z M 8.855469 52 " clip-rule="nonzero"/></clipPath></defs><g clip-path="url(#e1ff6b0049)"><path fill="none" d="M 0 0" fill-opacity="0" fill-rule="nonzero"/></g><g fill="#224da5" fill-opacity="1"><g transform="translate(35.669977, 61.399485)"><g><path d="M 6.9375 -0.6875 C 6.75 -0.3125 6.429688 -0.078125 5.984375 0.015625 C 5.546875 0.117188 5.085938 0.078125 4.609375 -0.109375 C 4.140625 -0.296875 3.753906 -0.617188 3.453125 -1.078125 C 3.148438 -1.515625 2.96875 -2.046875 2.90625 -2.671875 C 2.84375 -3.304688 2.832031 -3.96875 2.875 -4.65625 C 2.914062 -5.351562 2.957031 -6.023438 3 -6.671875 C 3.050781 -7.328125 3.050781 -7.898438 3 -8.390625 C 2.925781 -9.035156 2.710938 -9.65625 2.359375 -10.25 C 2.003906 -10.851562 1.640625 -11.453125 1.265625 -12.046875 C 0.890625 -12.640625 0.625 -13.269531 0.46875 -13.9375 C 0.320312 -14.539062 0.34375 -15.09375 0.53125 -15.59375 C 0.71875 -16.101562 1.039062 -16.457031 1.5 -16.65625 C 1.96875 -16.851562 2.523438 -16.785156 3.171875 -16.453125 C 3.742188 -16.179688 4.175781 -15.773438 4.46875 -15.234375 C 4.769531 -14.691406 5.015625 -14.113281 5.203125 -13.5 C 5.390625 -12.894531 5.59375 -12.332031 5.8125 -11.8125 C 5.976562 -12.09375 6.164062 -12.441406 6.375 -12.859375 C 6.59375 -13.285156 6.828125 -13.726562 7.078125 -14.1875 C 7.328125 -14.644531 7.609375 -15.046875 7.921875 -15.390625 C 8.234375 -15.742188 8.570312 -15.988281 8.9375 -16.125 C 9.300781 -16.257812 9.703125 -16.222656 10.140625 -16.015625 C 10.503906 -15.847656 10.734375 -15.609375 10.828125 -15.296875 C 10.929688 -14.992188 10.953125 -14.65625 10.890625 -14.28125 C 10.835938 -13.90625 10.738281 -13.535156 10.59375 -13.171875 C 10.457031 -12.816406 10.332031 -12.519531 10.21875 -12.28125 C 10.007812 -11.820312 9.765625 -11.375 9.484375 -10.9375 C 9.210938 -10.507812 8.9375 -10.082031 8.65625 -9.65625 C 8.363281 -9.226562 8.15625 -8.875 8.03125 -8.59375 C 7.90625 -8.3125 7.835938 -8.007812 7.828125 -7.6875 C 7.828125 -7.375 7.859375 -6.957031 7.921875 -6.4375 C 7.984375 -5.601562 8.019531 -4.832031 8.03125 -4.125 C 8.050781 -3.414062 7.984375 -2.769531 7.828125 -2.1875 C 7.679688 -1.613281 7.382812 -1.113281 6.9375 -0.6875 Z M 6.9375 -0.6875 "/></g></g></g><g fill="#224da5" fill-opacity="1"><g transform="translate(45.377389, 61.399485)"><g><path d="M 6.890625 -0.875 C 6.078125 -0.257812 5.242188 0.03125 4.390625 0 C 3.546875 -0.03125 2.796875 -0.328125 2.140625 -0.890625 C 1.484375 -1.453125 1.003906 -2.191406 0.703125 -3.109375 C 0.460938 -3.953125 0.347656 -4.847656 0.359375 -5.796875 C 0.378906 -6.753906 0.5625 -7.671875 0.90625 -8.546875 C 1.257812 -9.421875 1.789062 -10.148438 2.5 -10.734375 C 2.96875 -11.128906 3.523438 -11.398438 4.171875 -11.546875 C 4.828125 -11.703125 5.472656 -11.726562 6.109375 -11.625 C 6.742188 -11.519531 7.28125 -11.265625 7.71875 -10.859375 C 8.164062 -10.453125 8.40625 -9.863281 8.4375 -9.09375 C 8.695312 -8.445312 8.867188 -7.742188 8.953125 -6.984375 C 9.046875 -6.222656 9.039062 -5.460938 8.9375 -4.703125 C 8.832031 -3.941406 8.613281 -3.226562 8.28125 -2.5625 C 7.945312 -1.894531 7.484375 -1.332031 6.890625 -0.875 Z M 5.96875 -4.1875 C 6.144531 -4.226562 6.273438 -4.382812 6.359375 -4.65625 C 6.453125 -4.925781 6.515625 -5.234375 6.546875 -5.578125 C 6.585938 -5.929688 6.601562 -6.265625 6.59375 -6.578125 C 6.582031 -6.890625 6.566406 -7.09375 6.546875 -7.1875 C 6.398438 -7.070312 6.257812 -6.929688 6.125 -6.765625 C 6 -6.609375 5.894531 -6.445312 5.8125 -6.28125 C 5.507812 -5.644531 5.34375 -5.109375 5.3125 -4.671875 C 5.289062 -4.234375 5.507812 -4.070312 5.96875 -4.1875 Z M 5.96875 -4.1875 "/></g></g></g><g fill="#224da5" fill-opacity="1"><g transform="translate(54.767219, 61.399485)"><g><path d="M 9.296875 2.46875 C 8.960938 2.976562 8.660156 3.273438 8.390625 3.359375 C 8.128906 3.453125 7.882812 3.390625 7.65625 3.171875 C 7.425781 2.960938 7.222656 2.664062 7.046875 2.28125 C 6.867188 1.90625 6.71875 1.488281 6.59375 1.03125 C 6.46875 0.582031 6.375 0.160156 6.3125 -0.234375 C 6.25 -0.628906 6.207031 -0.9375 6.1875 -1.15625 C 5.488281 -0.46875 4.8125 -0.0976562 4.15625 -0.046875 C 3.5 0.00390625 2.90625 -0.171875 2.375 -0.578125 C 1.851562 -0.992188 1.425781 -1.539062 1.09375 -2.21875 C 0.757812 -2.894531 0.550781 -3.609375 0.46875 -4.359375 C 0.394531 -5.117188 0.359375 -5.894531 0.359375 -6.6875 C 0.359375 -7.476562 0.453125 -8.25 0.640625 -9 C 0.722656 -9.289062 0.859375 -9.628906 1.046875 -10.015625 C 1.234375 -10.410156 1.46875 -10.765625 1.75 -11.078125 C 2.03125 -11.398438 2.34375 -11.609375 2.6875 -11.703125 C 3.03125 -11.804688 3.390625 -11.710938 3.765625 -11.421875 C 4.046875 -11.210938 4.203125 -10.914062 4.234375 -10.53125 C 4.265625 -10.144531 4.234375 -9.726562 4.140625 -9.28125 C 4.054688 -8.832031 3.957031 -8.398438 3.84375 -7.984375 C 3.738281 -7.566406 3.671875 -7.21875 3.640625 -6.9375 C 3.628906 -6.71875 3.625 -6.410156 3.625 -6.015625 C 3.625 -5.617188 3.660156 -5.253906 3.734375 -4.921875 C 3.804688 -4.585938 3.9375 -4.375 4.125 -4.28125 C 4.320312 -4.195312 4.601562 -4.34375 4.96875 -4.71875 C 5.289062 -5.0625 5.539062 -5.457031 5.71875 -5.90625 C 5.894531 -6.351562 6.09375 -6.796875 6.3125 -7.234375 C 6.539062 -7.671875 6.859375 -8.023438 7.265625 -8.296875 C 7.679688 -8.566406 8.050781 -8.648438 8.375 -8.546875 C 8.707031 -8.441406 8.988281 -8.226562 9.21875 -7.90625 C 9.457031 -7.59375 9.644531 -7.234375 9.78125 -6.828125 C 9.914062 -6.429688 10 -6.070312 10.03125 -5.75 C 10.070312 -4.976562 10.066406 -4.210938 10.015625 -3.453125 C 9.972656 -2.703125 9.9375 -1.941406 9.90625 -1.171875 C 9.882812 -0.566406 9.859375 0.0546875 9.828125 0.703125 C 9.796875 1.359375 9.617188 1.945312 9.296875 2.46875 Z M 9.296875 2.46875 "/></g></g></g><g fill="#224da5" fill-opacity="1"><g transform="translate(65.184062, 61.399485)"><g><path d="M 1.21875 -10.59375 C 0.863281 -10.507812 0.628906 -10.554688 0.515625 -10.734375 C 0.398438 -10.910156 0.359375 -11.132812 0.390625 -11.40625 C 0.421875 -11.6875 0.488281 -11.941406 0.59375 -12.171875 C 0.800781 -12.660156 1.039062 -13.125 1.3125 -13.5625 C 1.59375 -14.007812 2.007812 -14.257812 2.5625 -14.3125 C 2.96875 -14.34375 3.234375 -14.226562 3.359375 -13.96875 C 3.484375 -13.707031 3.515625 -13.40625 3.453125 -13.0625 C 3.398438 -12.71875 3.300781 -12.441406 3.15625 -12.234375 C 2.945312 -11.921875 2.664062 -11.585938 2.3125 -11.234375 C 1.957031 -10.878906 1.59375 -10.664062 1.21875 -10.59375 Z M 1.21875 -10.59375 "/></g></g></g><g fill="#224da5" fill-opacity="1"><g transform="translate(69.023128, 61.399485)"><g><path d="M 1.375 -0.859375 C 1 -1.503906 0.734375 -2.226562 0.578125 -3.03125 C 0.421875 -3.84375 0.347656 -4.679688 0.359375 -5.546875 C 0.378906 -6.410156 0.441406 -7.257812 0.546875 -8.09375 C 0.648438 -8.925781 0.773438 -9.703125 0.921875 -10.421875 C 0.972656 -10.679688 1.039062 -10.984375 1.125 -11.328125 C 1.21875 -11.679688 1.347656 -12.007812 1.515625 -12.3125 C 1.679688 -12.625 1.898438 -12.835938 2.171875 -12.953125 C 2.515625 -13.109375 2.816406 -13.109375 3.078125 -12.953125 C 3.335938 -12.804688 3.554688 -12.578125 3.734375 -12.265625 C 3.921875 -11.960938 4.066406 -11.644531 4.171875 -11.3125 C 4.273438 -10.976562 4.351562 -10.6875 4.40625 -10.4375 C 4.664062 -10.882812 4.972656 -11.296875 5.328125 -11.671875 C 5.691406 -12.054688 6.101562 -12.347656 6.5625 -12.546875 C 7.03125 -12.742188 7.53125 -12.773438 8.0625 -12.640625 C 8.539062 -12.523438 8.972656 -12.285156 9.359375 -11.921875 C 9.753906 -11.566406 10.082031 -11.15625 10.34375 -10.6875 C 10.601562 -10.226562 10.757812 -9.765625 10.8125 -9.296875 C 10.84375 -8.921875 10.769531 -8.578125 10.59375 -8.265625 C 10.425781 -7.953125 10.140625 -7.78125 9.734375 -7.75 C 9.359375 -7.738281 9.0625 -7.847656 8.84375 -8.078125 C 8.632812 -8.316406 8.394531 -8.535156 8.125 -8.734375 C 7.695312 -9.054688 7.300781 -9.175781 6.9375 -9.09375 C 6.582031 -9.007812 6.257812 -8.816406 5.96875 -8.515625 C 5.6875 -8.210938 5.429688 -7.867188 5.203125 -7.484375 C 4.960938 -7.078125 4.75 -6.648438 4.5625 -6.203125 C 4.375 -5.765625 4.238281 -5.3125 4.15625 -4.84375 C 4.0625 -4.320312 3.992188 -3.796875 3.953125 -3.265625 C 3.921875 -2.734375 3.867188 -2.207031 3.796875 -1.6875 C 3.710938 -1.195312 3.539062 -0.785156 3.28125 -0.453125 C 3.019531 -0.117188 2.71875 0.03125 2.375 0 C 2.03125 -0.0195312 1.695312 -0.304688 1.375 -0.859375 Z M 1.375 -0.859375 "/></g></g></g><g fill="#224da5" fill-opacity="1"><g transform="translate(80.075743, 61.399485)"><g><path d="M 3.28125 -1.09375 C 2.507812 -1.226562 1.898438 -1.53125 1.453125 -2 C 1.003906 -2.476562 0.695312 -3.050781 0.53125 -3.71875 C 0.375 -4.382812 0.332031 -5.082031 0.40625 -5.8125 C 0.476562 -6.550781 0.648438 -7.25 0.921875 -7.90625 C 1.203125 -8.570312 1.554688 -9.128906 1.984375 -9.578125 C 2.515625 -10.148438 3.191406 -10.570312 4.015625 -10.84375 C 4.835938 -11.125 5.644531 -11.15625 6.4375 -10.9375 C 6.84375 -10.820312 7.210938 -10.613281 7.546875 -10.3125 C 7.890625 -10.007812 8.160156 -9.660156 8.359375 -9.265625 C 8.554688 -8.878906 8.640625 -8.476562 8.609375 -8.0625 C 8.578125 -7.644531 8.394531 -7.25 8.0625 -6.875 C 7.757812 -6.53125 7.378906 -6.273438 6.921875 -6.109375 C 6.460938 -5.953125 6.015625 -5.832031 5.578125 -5.75 C 5.285156 -5.695312 4.984375 -5.660156 4.671875 -5.640625 C 4.359375 -5.628906 4.09375 -5.550781 3.875 -5.40625 C 3.65625 -5.269531 3.53125 -4.992188 3.5 -4.578125 C 3.46875 -4.128906 3.535156 -3.859375 3.703125 -3.765625 C 3.878906 -3.671875 4.097656 -3.679688 4.359375 -3.796875 C 4.628906 -3.921875 4.910156 -4.085938 5.203125 -4.296875 C 5.503906 -4.515625 5.773438 -4.71875 6.015625 -4.90625 C 6.253906 -5.101562 6.425781 -5.226562 6.53125 -5.28125 C 7.050781 -5.507812 7.425781 -5.523438 7.65625 -5.328125 C 7.882812 -5.128906 8.003906 -4.832031 8.015625 -4.4375 C 8.035156 -4.039062 7.972656 -3.632812 7.828125 -3.21875 C 7.691406 -2.8125 7.519531 -2.503906 7.3125 -2.296875 C 6.800781 -1.796875 6.175781 -1.441406 5.4375 -1.234375 C 4.695312 -1.023438 3.976562 -0.976562 3.28125 -1.09375 Z M 4.890625 -7.28125 C 5.054688 -7.238281 5.269531 -7.242188 5.53125 -7.296875 C 5.789062 -7.359375 6.007812 -7.457031 6.1875 -7.59375 C 6.363281 -7.726562 6.410156 -7.878906 6.328125 -8.046875 C 6.023438 -8.097656 5.742188 -8.054688 5.484375 -7.921875 C 5.222656 -7.796875 5.023438 -7.582031 4.890625 -7.28125 Z M 4.890625 -7.28125 "/></g></g></g><g fill="#224da5" fill-opacity="1"><g transform="translate(89.049879, 61.399485)"><g/></g></g><g fill="#224da5" fill-opacity="1"><g transform="translate(95.163051, 61.399485)"><g><path d="M 0.4375 -15.4375 C 0.3125 -15.914062 0.335938 -16.398438 0.515625 -16.890625 C 0.691406 -17.378906 0.972656 -17.816406 1.359375 -18.203125 C 1.742188 -18.585938 2.171875 -18.84375 2.640625 -18.96875 C 2.835938 -19.019531 3.085938 -19.03125 3.390625 -19 C 3.703125 -18.976562 4.015625 -18.90625 4.328125 -18.78125 C 4.640625 -18.664062 4.878906 -18.5 5.046875 -18.28125 C 5.222656 -18.070312 5.257812 -17.816406 5.15625 -17.515625 C 5.320312 -17.023438 5.296875 -16.53125 5.078125 -16.03125 C 4.867188 -15.53125 4.550781 -15.097656 4.125 -14.734375 C 3.707031 -14.367188 3.25 -14.117188 2.75 -13.984375 C 2.25 -13.859375 1.785156 -13.898438 1.359375 -14.109375 C 0.941406 -14.316406 0.632812 -14.757812 0.4375 -15.4375 Z M 3.640625 -0.34375 C 3.109375 0.03125 2.585938 0.101562 2.078125 -0.125 C 1.578125 -0.351562 1.191406 -0.734375 0.921875 -1.265625 C 0.679688 -1.785156 0.523438 -2.382812 0.453125 -3.0625 C 0.378906 -3.738281 0.351562 -4.441406 0.375 -5.171875 C 0.40625 -5.910156 0.453125 -6.628906 0.515625 -7.328125 C 0.578125 -8.035156 0.632812 -8.65625 0.6875 -9.1875 C 0.71875 -9.53125 0.75 -9.925781 0.78125 -10.375 C 0.8125 -10.820312 0.882812 -11.265625 1 -11.703125 C 1.113281 -12.148438 1.296875 -12.503906 1.546875 -12.765625 C 1.898438 -13.140625 2.269531 -13.3125 2.65625 -13.28125 C 3.050781 -13.257812 3.421875 -13.113281 3.765625 -12.84375 C 4.117188 -12.582031 4.390625 -12.242188 4.578125 -11.828125 C 4.984375 -10.953125 5.210938 -9.972656 5.265625 -8.890625 C 5.328125 -7.804688 5.285156 -6.71875 5.140625 -5.625 C 4.992188 -4.53125 4.828125 -3.523438 4.640625 -2.609375 C 4.566406 -2.203125 4.472656 -1.789062 4.359375 -1.375 C 4.253906 -0.96875 4.015625 -0.625 3.640625 -0.34375 Z M 3.640625 -0.34375 "/></g></g></g><g fill="#224da5" fill-opacity="1"><g transform="translate(100.811617, 61.399485)"><g><path d="M 9.484375 1.6875 C 9.128906 1.257812 8.859375 0.742188 8.671875 0.140625 C 8.484375 -0.460938 8.335938 -1.078125 8.234375 -1.703125 C 8.140625 -2.328125 8.046875 -2.898438 7.953125 -3.421875 C 7.878906 -3.765625 7.796875 -4.113281 7.703125 -4.46875 C 7.609375 -4.832031 7.445312 -5.128906 7.21875 -5.359375 C 7 -5.585938 6.664062 -5.675781 6.21875 -5.625 C 5.84375 -5.59375 5.5 -5.460938 5.1875 -5.234375 C 4.875 -5.003906 4.585938 -4.757812 4.328125 -4.5 C 3.972656 -4.175781 3.78125 -3.894531 3.75 -3.65625 C 3.726562 -3.414062 3.71875 -3.066406 3.71875 -2.609375 C 3.695312 -2.285156 3.640625 -1.921875 3.546875 -1.515625 C 3.453125 -1.117188 3.304688 -0.78125 3.109375 -0.5 C 2.910156 -0.21875 2.664062 -0.0546875 2.375 -0.015625 C 2.082031 0.015625 1.738281 -0.175781 1.34375 -0.59375 C 0.96875 -0.976562 0.707031 -1.46875 0.5625 -2.0625 C 0.425781 -2.65625 0.363281 -3.269531 0.375 -3.90625 C 0.382812 -4.539062 0.40625 -5.101562 0.4375 -5.59375 C 0.46875 -6.132812 0.53125 -6.707031 0.625 -7.3125 C 0.71875 -7.914062 0.863281 -8.5 1.0625 -9.0625 C 1.269531 -9.632812 1.5625 -10.128906 1.9375 -10.546875 C 2.28125 -10.921875 2.566406 -11.101562 2.796875 -11.09375 C 3.035156 -11.082031 3.234375 -10.953125 3.390625 -10.703125 C 3.554688 -10.460938 3.679688 -10.160156 3.765625 -9.796875 C 3.859375 -9.441406 3.925781 -9.082031 3.96875 -8.71875 C 4.007812 -8.351562 4.03125 -8.054688 4.03125 -7.828125 C 4.519531 -8.296875 5.050781 -8.671875 5.625 -8.953125 C 6.195312 -9.242188 6.765625 -9.40625 7.328125 -9.4375 C 7.898438 -9.46875 8.4375 -9.332031 8.9375 -9.03125 C 9.4375 -8.726562 9.847656 -8.226562 10.171875 -7.53125 C 10.523438 -6.757812 10.789062 -5.921875 10.96875 -5.015625 C 11.15625 -4.117188 11.28125 -3.210938 11.34375 -2.296875 C 11.40625 -1.378906 11.4375 -0.507812 11.4375 0.3125 C 11.4375 0.625 11.390625 0.9375 11.296875 1.25 C 11.210938 1.570312 11.085938 1.832031 10.921875 2.03125 C 10.765625 2.226562 10.5625 2.3125 10.3125 2.28125 C 10.070312 2.257812 9.796875 2.0625 9.484375 1.6875 Z M 9.484375 1.6875 "/></g></g></g><g fill="#224da5" fill-opacity="1"><g transform="translate(112.622267, 61.399485)"><g><path d="M 3.90625 -0.09375 C 3.46875 -0.238281 3.109375 -0.507812 2.828125 -0.90625 C 2.554688 -1.3125 2.34375 -1.75 2.1875 -2.21875 C 2.03125 -2.695312 1.890625 -3.140625 1.765625 -3.546875 C 1.660156 -3.890625 1.503906 -4.378906 1.296875 -5.015625 C 1.097656 -5.660156 0.910156 -6.367188 0.734375 -7.140625 C 0.554688 -7.921875 0.4375 -8.679688 0.375 -9.421875 C 0.320312 -10.171875 0.378906 -10.820312 0.546875 -11.375 C 0.722656 -11.925781 1.0625 -12.300781 1.5625 -12.5 C 2.039062 -12.675781 2.460938 -12.597656 2.828125 -12.265625 C 3.191406 -11.941406 3.507812 -11.476562 3.78125 -10.875 C 4.050781 -10.28125 4.28125 -9.632812 4.46875 -8.9375 C 4.65625 -8.238281 4.804688 -7.597656 4.921875 -7.015625 C 5.046875 -6.429688 5.140625 -6.007812 5.203125 -5.75 C 5.222656 -5.84375 5.253906 -6.082031 5.296875 -6.46875 C 5.335938 -6.851562 5.40625 -7.304688 5.5 -7.828125 C 5.601562 -8.347656 5.722656 -8.875 5.859375 -9.40625 C 5.992188 -9.9375 6.160156 -10.390625 6.359375 -10.765625 C 6.566406 -11.148438 6.804688 -11.390625 7.078125 -11.484375 C 7.359375 -11.585938 7.671875 -11.476562 8.015625 -11.15625 C 8.234375 -10.957031 8.359375 -10.671875 8.390625 -10.296875 C 8.421875 -9.921875 8.398438 -9.515625 8.328125 -9.078125 C 8.265625 -8.648438 8.1875 -8.242188 8.09375 -7.859375 C 8 -7.472656 7.925781 -7.160156 7.875 -6.921875 C 7.695312 -6.117188 7.488281 -5.3125 7.25 -4.5 C 7.007812 -3.6875 6.742188 -2.890625 6.453125 -2.109375 C 6.328125 -1.742188 6.148438 -1.378906 5.921875 -1.015625 C 5.703125 -0.648438 5.429688 -0.367188 5.109375 -0.171875 C 4.785156 0.0234375 4.382812 0.0507812 3.90625 -0.09375 Z M 3.90625 -0.09375 "/></g></g></g><g fill="#224da5" fill-opacity="1"><g transform="translate(121.400775, 61.399485)"><g><path d="M 0.609375 -11.609375 C 0.410156 -11.972656 0.347656 -12.328125 0.421875 -12.671875 C 0.492188 -13.015625 0.644531 -13.289062 0.875 -13.5 C 1.101562 -13.707031 1.367188 -13.796875 1.671875 -13.765625 C 1.972656 -13.734375 2.253906 -13.519531 2.515625 -13.125 C 2.796875 -12.738281 2.898438 -12.363281 2.828125 -12 C 2.753906 -11.644531 2.585938 -11.359375 2.328125 -11.140625 C 2.066406 -10.929688 1.769531 -10.851562 1.4375 -10.90625 C 1.113281 -10.957031 0.835938 -11.191406 0.609375 -11.609375 Z M 2.390625 -0.265625 C 2.015625 -0.00390625 1.703125 0.078125 1.453125 -0.015625 C 1.210938 -0.117188 1.023438 -0.320312 0.890625 -0.625 C 0.753906 -0.9375 0.648438 -1.289062 0.578125 -1.6875 C 0.503906 -2.082031 0.457031 -2.453125 0.4375 -2.796875 C 0.425781 -3.148438 0.410156 -3.40625 0.390625 -3.5625 C 0.367188 -4.125 0.367188 -4.6875 0.390625 -5.25 C 0.421875 -5.8125 0.453125 -6.367188 0.484375 -6.921875 C 0.503906 -7.210938 0.515625 -7.539062 0.515625 -7.90625 C 0.515625 -8.269531 0.550781 -8.617188 0.625 -8.953125 C 0.695312 -9.296875 0.847656 -9.570312 1.078125 -9.78125 C 1.453125 -10.15625 1.769531 -10.320312 2.03125 -10.28125 C 2.289062 -10.238281 2.5 -10.070312 2.65625 -9.78125 C 2.820312 -9.488281 2.945312 -9.140625 3.03125 -8.734375 C 3.125 -8.335938 3.191406 -7.945312 3.234375 -7.5625 C 3.273438 -7.1875 3.304688 -6.898438 3.328125 -6.703125 C 3.410156 -6.035156 3.425781 -5.367188 3.375 -4.703125 C 3.320312 -4.046875 3.25 -3.382812 3.15625 -2.71875 C 3.125 -2.488281 3.085938 -2.207031 3.046875 -1.875 C 3.015625 -1.550781 2.953125 -1.242188 2.859375 -0.953125 C 2.773438 -0.660156 2.617188 -0.429688 2.390625 -0.265625 Z M 2.390625 -0.265625 "/></g></g></g><g fill="#224da5" fill-opacity="1"><g transform="translate(125.16649, 61.399485)"><g><path d="M 6.484375 1.734375 C 6.117188 2.023438 5.8125 2.109375 5.5625 1.984375 C 5.320312 1.867188 5.125 1.644531 4.96875 1.3125 C 4.820312 0.976562 4.707031 0.617188 4.625 0.234375 C 4.539062 -0.148438 4.472656 -0.460938 4.421875 -0.703125 C 4.222656 -1.878906 4.070312 -3.066406 3.96875 -4.265625 C 3.863281 -5.460938 3.785156 -6.65625 3.734375 -7.84375 C 3.703125 -8.382812 3.707031 -8.953125 3.75 -9.546875 C 3.789062 -10.140625 3.796875 -10.664062 3.765625 -11.125 C 3.742188 -11.59375 3.628906 -11.90625 3.421875 -12.0625 L 2.375 -12.234375 C 2.125 -12.265625 1.875 -12.300781 1.625 -12.34375 C 1.375 -12.394531 1.132812 -12.46875 0.90625 -12.5625 C 0.5 -12.757812 0.21875 -13.039062 0.0625 -13.40625 C -0.09375 -13.78125 0 -14.171875 0.34375 -14.578125 C 0.601562 -14.878906 0.953125 -15.078125 1.390625 -15.171875 C 1.828125 -15.265625 2.234375 -15.328125 2.609375 -15.359375 L 4.015625 -15.796875 C 4.128906 -15.972656 4.1875 -16.21875 4.1875 -16.53125 C 4.195312 -16.851562 4.21875 -17.125 4.25 -17.34375 C 4.332031 -17.78125 4.445312 -18.25 4.59375 -18.75 C 4.738281 -19.257812 5 -19.671875 5.375 -19.984375 C 5.707031 -20.304688 5.988281 -20.414062 6.21875 -20.3125 C 6.457031 -20.207031 6.65625 -19.976562 6.8125 -19.625 C 6.976562 -19.269531 7.125 -18.867188 7.25 -18.421875 C 7.375 -17.972656 7.476562 -17.550781 7.5625 -17.15625 C 7.65625 -16.757812 7.734375 -16.46875 7.796875 -16.28125 C 7.878906 -16.09375 7.929688 -15.957031 7.953125 -15.875 C 7.984375 -15.800781 8.035156 -15.757812 8.109375 -15.75 C 8.191406 -15.75 8.363281 -15.738281 8.625 -15.71875 C 9.113281 -15.6875 9.476562 -15.65625 9.71875 -15.625 C 9.96875 -15.601562 10.175781 -15.570312 10.34375 -15.53125 C 10.507812 -15.5 10.722656 -15.429688 10.984375 -15.328125 C 11.304688 -15.210938 11.644531 -15.039062 12 -14.8125 C 12.363281 -14.582031 12.59375 -14.28125 12.6875 -13.90625 C 12.800781 -13.53125 12.734375 -13.222656 12.484375 -12.984375 C 12.234375 -12.742188 11.921875 -12.5625 11.546875 -12.4375 C 11.171875 -12.3125 10.84375 -12.21875 10.5625 -12.15625 L 8.5625 -11.90625 C 8.363281 -11.851562 8.242188 -11.835938 8.203125 -11.859375 C 8.160156 -11.878906 8.144531 -11.878906 8.15625 -11.859375 C 8.164062 -11.835938 8.128906 -11.75 8.046875 -11.59375 L 8.046875 -10.734375 C 8.046875 -9.296875 8.015625 -7.847656 7.953125 -6.390625 C 7.898438 -4.929688 7.789062 -3.476562 7.625 -2.03125 C 7.582031 -1.664062 7.53125 -1.234375 7.46875 -0.734375 C 7.414062 -0.242188 7.3125 0.226562 7.15625 0.6875 C 7.007812 1.144531 6.785156 1.492188 6.484375 1.734375 Z M 6.484375 1.734375 "/></g></g></g><g fill="#224da5" fill-opacity="1"><g transform="translate(136.194231, 61.399485)"><g><path d="M 3.28125 -1.09375 C 2.507812 -1.226562 1.898438 -1.53125 1.453125 -2 C 1.003906 -2.476562 0.695312 -3.050781 0.53125 -3.71875 C 0.375 -4.382812 0.332031 -5.082031 0.40625 -5.8125 C 0.476562 -6.550781 0.648438 -7.25 0.921875 -7.90625 C 1.203125 -8.570312 1.554688 -9.128906 1.984375 -9.578125 C 2.515625 -10.148438 3.191406 -10.570312 4.015625 -10.84375 C 4.835938 -11.125 5.644531 -11.15625 6.4375 -10.9375 C 6.84375 -10.820312 7.210938 -10.613281 7.546875 -10.3125 C 7.890625 -10.007812 8.160156 -9.660156 8.359375 -9.265625 C 8.554688 -8.878906 8.640625 -8.476562 8.609375 -8.0625 C 8.578125 -7.644531 8.394531 -7.25 8.0625 -6.875 C 7.757812 -6.53125 7.378906 -6.273438 6.921875 -6.109375 C 6.460938 -5.953125 6.015625 -5.832031 5.578125 -5.75 C 5.285156 -5.695312 4.984375 -5.660156 4.671875 -5.640625 C 4.359375 -5.628906 4.09375 -5.550781 3.875 -5.40625 C 3.65625 -5.269531 3.53125 -4.992188 3.5 -4.578125 C 3.46875 -4.128906 3.535156 -3.859375 3.703125 -3.765625 C 3.878906 -3.671875 4.097656 -3.679688 4.359375 -3.796875 C 4.628906 -3.921875 4.910156 -4.085938 5.203125 -4.296875 C 5.503906 -4.515625 5.773438 -4.71875 6.015625 -4.90625 C 6.253906 -5.101562 6.425781 -5.226562 6.53125 -5.28125 C 7.050781 -5.507812 7.425781 -5.523438 7.65625 -5.328125 C 7.882812 -5.128906 8.003906 -4.832031 8.015625 -4.4375 C 8.035156 -4.039062 7.972656 -3.632812 7.828125 -3.21875 C 7.691406 -2.8125 7.519531 -2.503906 7.3125 -2.296875 C 6.800781 -1.796875 6.175781 -1.441406 5.4375 -1.234375 C 4.695312 -1.023438 3.976562 -0.976562 3.28125 -1.09375 Z M 4.890625 -7.28125 C 5.054688 -7.238281 5.269531 -7.242188 5.53125 -7.296875 C 5.789062 -7.359375 6.007812 -7.457031 6.1875 -7.59375 C 6.363281 -7.726562 6.410156 -7.878906 6.328125 -8.046875 C 6.023438 -8.097656 5.742188 -8.054688 5.484375 -7.921875 C 5.222656 -7.796875 5.023438 -7.582031 4.890625 -7.28125 Z M 4.890625 -7.28125 "/></g></g></g><g fill="#224da5" fill-opacity="1"><g transform="translate(145.168368, 61.399485)"><g><path d="M 7.140625 -0.046875 C 6.785156 0.078125 6.484375 0.0078125 6.234375 -0.25 C 5.992188 -0.507812 5.832031 -0.785156 5.75 -1.078125 C 5.144531 -0.617188 4.5625 -0.375 4 -0.34375 C 3.4375 -0.3125 2.914062 -0.425781 2.4375 -0.6875 C 1.96875 -0.957031 1.566406 -1.335938 1.234375 -1.828125 C 0.898438 -2.316406 0.65625 -2.851562 0.5 -3.4375 C 0.34375 -4.03125 0.316406 -4.617188 0.421875 -5.203125 C 0.546875 -5.972656 0.8125 -6.710938 1.21875 -7.421875 C 1.625 -8.128906 2.109375 -8.753906 2.671875 -9.296875 C 2.890625 -9.523438 3.144531 -9.707031 3.4375 -9.84375 C 3.738281 -9.976562 4.019531 -10.128906 4.28125 -10.296875 C 4.539062 -10.460938 4.71875 -10.675781 4.8125 -10.9375 C 4.945312 -11.269531 5.003906 -11.671875 4.984375 -12.140625 C 4.972656 -12.609375 4.953125 -13.082031 4.921875 -13.5625 C 4.898438 -14.039062 4.929688 -14.488281 5.015625 -14.90625 C 5.097656 -15.332031 5.289062 -15.6875 5.59375 -15.96875 C 6.019531 -16.34375 6.378906 -16.488281 6.671875 -16.40625 C 6.960938 -16.320312 7.207031 -16.109375 7.40625 -15.765625 C 7.601562 -15.429688 7.742188 -15.054688 7.828125 -14.640625 C 7.921875 -14.234375 7.96875 -13.894531 7.96875 -13.625 C 7.988281 -12.695312 8 -11.765625 8 -10.828125 C 8 -9.898438 8.003906 -8.972656 8.015625 -8.046875 C 8.035156 -7.046875 8.046875 -6.039062 8.046875 -5.03125 C 8.054688 -4.019531 8 -3.007812 7.875 -2 C 7.851562 -1.8125 7.832031 -1.582031 7.8125 -1.3125 C 7.789062 -1.039062 7.734375 -0.785156 7.640625 -0.546875 C 7.546875 -0.316406 7.378906 -0.148438 7.140625 -0.046875 Z M 3.625 -4.5 C 3.800781 -4.25 3.984375 -4.148438 4.171875 -4.203125 C 4.359375 -4.265625 4.523438 -4.398438 4.671875 -4.609375 C 4.816406 -4.816406 4.898438 -4.992188 4.921875 -5.140625 C 4.992188 -5.578125 4.972656 -6.0625 4.859375 -6.59375 C 4.742188 -7.132812 4.679688 -7.632812 4.671875 -8.09375 C 4.378906 -7.863281 4.101562 -7.535156 3.84375 -7.109375 C 3.59375 -6.691406 3.429688 -6.242188 3.359375 -5.765625 C 3.285156 -5.296875 3.375 -4.875 3.625 -4.5 Z M 3.625 -4.5 "/></g></g></g><g fill="#224da5" fill-opacity="1"><g transform="translate(64.227294, 85.349274)"><g><path d="M 6.484375 1.734375 C 6.117188 2.023438 5.8125 2.109375 5.5625 1.984375 C 5.320312 1.867188 5.125 1.644531 4.96875 1.3125 C 4.820312 0.976562 4.707031 0.617188 4.625 0.234375 C 4.539062 -0.148438 4.472656 -0.460938 4.421875 -0.703125 C 4.222656 -1.878906 4.070312 -3.066406 3.96875 -4.265625 C 3.863281 -5.460938 3.785156 -6.65625 3.734375 -7.84375 C 3.703125 -8.382812 3.707031 -8.953125 3.75 -9.546875 C 3.789062 -10.140625 3.796875 -10.664062 3.765625 -11.125 C 3.742188 -11.59375 3.628906 -11.90625 3.421875 -12.0625 L 2.375 -12.234375 C 2.125 -12.265625 1.875 -12.300781 1.625 -12.34375 C 1.375 -12.394531 1.132812 -12.46875 0.90625 -12.5625 C 0.5 -12.757812 0.21875 -13.039062 0.0625 -13.40625 C -0.09375 -13.78125 0 -14.171875 0.34375 -14.578125 C 0.601562 -14.878906 0.953125 -15.078125 1.390625 -15.171875 C 1.828125 -15.265625 2.234375 -15.328125 2.609375 -15.359375 L 4.015625 -15.796875 C 4.128906 -15.972656 4.1875 -16.21875 4.1875 -16.53125 C 4.195312 -16.851562 4.21875 -17.125 4.25 -17.34375 C 4.332031 -17.78125 4.445312 -18.25 4.59375 -18.75 C 4.738281 -19.257812 5 -19.671875 5.375 -19.984375 C 5.707031 -20.304688 5.988281 -20.414062 6.21875 -20.3125 C 6.457031 -20.207031 6.65625 -19.976562 6.8125 -19.625 C 6.976562 -19.269531 7.125 -18.867188 7.25 -18.421875 C 7.375 -17.972656 7.476562 -17.550781 7.5625 -17.15625 C 7.65625 -16.757812 7.734375 -16.46875 7.796875 -16.28125 C 7.878906 -16.09375 7.929688 -15.957031 7.953125 -15.875 C 7.984375 -15.800781 8.035156 -15.757812 8.109375 -15.75 C 8.191406 -15.75 8.363281 -15.738281 8.625 -15.71875 C 9.113281 -15.6875 9.476562 -15.65625 9.71875 -15.625 C 9.96875 -15.601562 10.175781 -15.570312 10.34375 -15.53125 C 10.507812 -15.5 10.722656 -15.429688 10.984375 -15.328125 C 11.304688 -15.210938 11.644531 -15.039062 12 -14.8125 C 12.363281 -14.582031 12.59375 -14.28125 12.6875 -13.90625 C 12.800781 -13.53125 12.734375 -13.222656 12.484375 -12.984375 C 12.234375 -12.742188 11.921875 -12.5625 11.546875 -12.4375 C 11.171875 -12.3125 10.84375 -12.21875 10.5625 -12.15625 L 8.5625 -11.90625 C 8.363281 -11.851562 8.242188 -11.835938 8.203125 -11.859375 C 8.160156 -11.878906 8.144531 -11.878906 8.15625 -11.859375 C 8.164062 -11.835938 8.128906 -11.75 8.046875 -11.59375 L 8.046875 -10.734375 C 8.046875 -9.296875 8.015625 -7.847656 7.953125 -6.390625 C 7.898438 -4.929688 7.789062 -3.476562 7.625 -2.03125 C 7.582031 -1.664062 7.53125 -1.234375 7.46875 -0.734375 C 7.414062 -0.242188 7.3125 0.226562 7.15625 0.6875 C 7.007812 1.144531 6.785156 1.492188 6.484375 1.734375 Z M 6.484375 1.734375 "/></g></g></g><g fill="#224da5" fill-opacity="1"><g transform="translate(75.255035, 85.349274)"><g><path d="M 6.890625 -0.875 C 6.078125 -0.257812 5.242188 0.03125 4.390625 0 C 3.546875 -0.03125 2.796875 -0.328125 2.140625 -0.890625 C 1.484375 -1.453125 1.003906 -2.191406 0.703125 -3.109375 C 0.460938 -3.953125 0.347656 -4.847656 0.359375 -5.796875 C 0.378906 -6.753906 0.5625 -7.671875 0.90625 -8.546875 C 1.257812 -9.421875 1.789062 -10.148438 2.5 -10.734375 C 2.96875 -11.128906 3.523438 -11.398438 4.171875 -11.546875 C 4.828125 -11.703125 5.472656 -11.726562 6.109375 -11.625 C 6.742188 -11.519531 7.28125 -11.265625 7.71875 -10.859375 C 8.164062 -10.453125 8.40625 -9.863281 8.4375 -9.09375 C 8.695312 -8.445312 8.867188 -7.742188 8.953125 -6.984375 C 9.046875 -6.222656 9.039062 -5.460938 8.9375 -4.703125 C 8.832031 -3.941406 8.613281 -3.226562 8.28125 -2.5625 C 7.945312 -1.894531 7.484375 -1.332031 6.890625 -0.875 Z M 5.96875 -4.1875 C 6.144531 -4.226562 6.273438 -4.382812 6.359375 -4.65625 C 6.453125 -4.925781 6.515625 -5.234375 6.546875 -5.578125 C 6.585938 -5.929688 6.601562 -6.265625 6.59375 -6.578125 C 6.582031 -6.890625 6.566406 -7.09375 6.546875 -7.1875 C 6.398438 -7.070312 6.257812 -6.929688 6.125 -6.765625 C 6 -6.609375 5.894531 -6.445312 5.8125 -6.28125 C 5.507812 -5.644531 5.34375 -5.109375 5.3125 -4.671875 C 5.289062 -4.234375 5.507812 -4.070312 5.96875 -4.1875 Z M 5.96875 -4.1875 "/></g></g></g><g fill="#224da5" fill-opacity="1"><g transform="translate(84.644865, 85.349274)"><g/></g></g><g fill="#224da5" fill-opacity="1"><g transform="translate(90.758036, 85.349274)"><g><path d="M 8.140625 -0.390625 C 7.441406 -0.128906 6.695312 0 5.90625 0 C 5.113281 0 4.382812 -0.144531 3.71875 -0.4375 C 2.882812 -0.8125 2.289062 -1.332031 1.9375 -2 C 1.59375 -2.664062 1.296875 -3.410156 1.046875 -4.234375 C 0.773438 -5.160156 0.578125 -6.132812 0.453125 -7.15625 C 0.328125 -8.175781 0.347656 -9.15625 0.515625 -10.09375 C 0.679688 -11.039062 1.046875 -11.890625 1.609375 -12.640625 C 2.179688 -13.390625 3.015625 -13.960938 4.109375 -14.359375 C 5.242188 -14.765625 6.335938 -14.875 7.390625 -14.6875 C 8.441406 -14.507812 9.34375 -14.054688 10.09375 -13.328125 C 10.84375 -12.609375 11.332031 -11.640625 11.5625 -10.421875 C 11.707031 -9.585938 11.785156 -8.664062 11.796875 -7.65625 C 11.804688 -6.65625 11.695312 -5.664062 11.46875 -4.6875 C 11.238281 -3.71875 10.851562 -2.84375 10.3125 -2.0625 C 9.78125 -1.289062 9.054688 -0.734375 8.140625 -0.390625 Z M 5.140625 -3.6875 C 5.609375 -3.21875 6.039062 -2.992188 6.4375 -3.015625 C 6.84375 -3.046875 7.191406 -3.234375 7.484375 -3.578125 C 7.773438 -3.929688 7.988281 -4.34375 8.125 -4.8125 C 8.195312 -5.125 8.269531 -5.539062 8.34375 -6.0625 C 8.414062 -6.582031 8.453125 -7.125 8.453125 -7.6875 C 8.453125 -8.25 8.378906 -8.757812 8.234375 -9.21875 C 8.085938 -9.6875 7.84375 -10.019531 7.5 -10.21875 C 7.164062 -10.414062 6.789062 -10.4375 6.375 -10.28125 C 5.96875 -10.125 5.601562 -9.890625 5.28125 -9.578125 C 4.957031 -9.273438 4.742188 -8.976562 4.640625 -8.6875 C 4.546875 -8.375 4.472656 -7.984375 4.421875 -7.515625 C 4.378906 -7.054688 4.367188 -6.578125 4.390625 -6.078125 C 4.410156 -5.578125 4.476562 -5.113281 4.59375 -4.6875 C 4.707031 -4.269531 4.890625 -3.9375 5.140625 -3.6875 Z M 5.140625 -3.6875 "/></g></g></g><g fill="#224da5" fill-opacity="1"><g transform="translate(102.935467, 85.349274)"><g><path d="M 9.296875 2.46875 C 8.960938 2.976562 8.660156 3.273438 8.390625 3.359375 C 8.128906 3.453125 7.882812 3.390625 7.65625 3.171875 C 7.425781 2.960938 7.222656 2.664062 7.046875 2.28125 C 6.867188 1.90625 6.71875 1.488281 6.59375 1.03125 C 6.46875 0.582031 6.375 0.160156 6.3125 -0.234375 C 6.25 -0.628906 6.207031 -0.9375 6.1875 -1.15625 C 5.488281 -0.46875 4.8125 -0.0976562 4.15625 -0.046875 C 3.5 0.00390625 2.90625 -0.171875 2.375 -0.578125 C 1.851562 -0.992188 1.425781 -1.539062 1.09375 -2.21875 C 0.757812 -2.894531 0.550781 -3.609375 0.46875 -4.359375 C 0.394531 -5.117188 0.359375 -5.894531 0.359375 -6.6875 C 0.359375 -7.476562 0.453125 -8.25 0.640625 -9 C 0.722656 -9.289062 0.859375 -9.628906 1.046875 -10.015625 C 1.234375 -10.410156 1.46875 -10.765625 1.75 -11.078125 C 2.03125 -11.398438 2.34375 -11.609375 2.6875 -11.703125 C 3.03125 -11.804688 3.390625 -11.710938 3.765625 -11.421875 C 4.046875 -11.210938 4.203125 -10.914062 4.234375 -10.53125 C 4.265625 -10.144531 4.234375 -9.726562 4.140625 -9.28125 C 4.054688 -8.832031 3.957031 -8.398438 3.84375 -7.984375 C 3.738281 -7.566406 3.671875 -7.21875 3.640625 -6.9375 C 3.628906 -6.71875 3.625 -6.410156 3.625 -6.015625 C 3.625 -5.617188 3.660156 -5.253906 3.734375 -4.921875 C 3.804688 -4.585938 3.9375 -4.375 4.125 -4.28125 C 4.320312 -4.195312 4.601562 -4.34375 4.96875 -4.71875 C 5.289062 -5.0625 5.539062 -5.457031 5.71875 -5.90625 C 5.894531 -6.351562 6.09375 -6.796875 6.3125 -7.234375 C 6.539062 -7.671875 6.859375 -8.023438 7.265625 -8.296875 C 7.679688 -8.566406 8.050781 -8.648438 8.375 -8.546875 C 8.707031 -8.441406 8.988281 -8.226562 9.21875 -7.90625 C 9.457031 -7.59375 9.644531 -7.234375 9.78125 -6.828125 C 9.914062 -6.429688 10 -6.070312 10.03125 -5.75 C 10.070312 -4.976562 10.066406 -4.210938 10.015625 -3.453125 C 9.972656 -2.703125 9.9375 -1.941406 9.90625 -1.171875 C 9.882812 -0.566406 9.859375 0.0546875 9.828125 0.703125 C 9.796875 1.359375 9.617188 1.945312 9.296875 2.46875 Z M 9.296875 2.46875 "/></g></g></g><g fill="#224da5" fill-opacity="1"><g transform="translate(113.96378, 85.349274)"><g><path d="M 1.375 -0.859375 C 1 -1.503906 0.734375 -2.226562 0.578125 -3.03125 C 0.421875 -3.84375 0.347656 -4.679688 0.359375 -5.546875 C 0.378906 -6.410156 0.441406 -7.257812 0.546875 -8.09375 C 0.648438 -8.925781 0.773438 -9.703125 0.921875 -10.421875 C 0.972656 -10.679688 1.039062 -10.984375 1.125 -11.328125 C 1.21875 -11.679688 1.347656 -12.007812 1.515625 -12.3125 C 1.679688 -12.625 1.898438 -12.835938 2.171875 -12.953125 C 2.515625 -13.109375 2.816406 -13.109375 3.078125 -12.953125 C 3.335938 -12.804688 3.554688 -12.578125 3.734375 -12.265625 C 3.921875 -11.960938 4.066406 -11.644531 4.171875 -11.3125 C 4.273438 -10.976562 4.351562 -10.6875 4.40625 -10.4375 C 4.664062 -10.882812 4.972656 -11.296875 5.328125 -11.671875 C 5.691406 -12.054688 6.101562 -12.347656 6.5625 -12.546875 C 7.03125 -12.742188 7.53125 -12.773438 8.0625 -12.640625 C 8.539062 -12.523438 8.972656 -12.285156 9.359375 -11.921875 C 9.753906 -11.566406 10.082031 -11.15625 10.34375 -10.6875 C 10.601562 -10.226562 10.757812 -9.765625 10.8125 -9.296875 C 10.84375 -8.921875 10.769531 -8.578125 10.59375 -8.265625 C 10.425781 -7.953125 10.140625 -7.78125 9.734375 -7.75 C 9.359375 -7.738281 9.0625 -7.847656 8.84375 -8.078125 C 8.632812 -8.316406 8.394531 -8.535156 8.125 -8.734375 C 7.695312 -9.054688 7.300781 -9.175781 6.9375 -9.09375 C 6.582031 -9.007812 6.257812 -8.816406 5.96875 -8.515625 C 5.6875 -8.210938 5.429688 -7.867188 5.203125 -7.484375 C 4.960938 -7.078125 4.75 -6.648438 4.5625 -6.203125 C 4.375 -5.765625 4.238281 -5.3125 4.15625 -4.84375 C 4.0625 -4.320312 3.992188 -3.796875 3.953125 -3.265625 C 3.921875 -2.734375 3.867188 -2.207031 3.796875 -1.6875 C 3.710938 -1.195312 3.539062 -0.785156 3.28125 -0.453125 C 3.019531 -0.117188 2.71875 0.03125 2.375 0 C 2.03125 -0.0195312 1.695312 -0.304688 1.375 -0.859375 Z M 1.375 -0.859375 "/></g></g></g><g fill="#224da5" fill-opacity="1"><g transform="translate(57.19906, 109.299063)"><g><path d="M 5.9375 0 C 5.53125 -0.03125 5.179688 -0.160156 4.890625 -0.390625 C 4.609375 -0.617188 4.367188 -0.898438 4.171875 -1.234375 C 3.984375 -1.566406 3.804688 -1.894531 3.640625 -2.21875 C 3.066406 -3.425781 2.492188 -4.648438 1.921875 -5.890625 C 1.359375 -7.128906 0.894531 -8.394531 0.53125 -9.6875 C 0.457031 -9.976562 0.40625 -10.34375 0.375 -10.78125 C 0.351562 -11.21875 0.375 -11.65625 0.4375 -12.09375 C 0.5 -12.539062 0.617188 -12.914062 0.796875 -13.21875 C 0.984375 -13.519531 1.234375 -13.6875 1.546875 -13.71875 C 1.867188 -13.75 2.273438 -13.5625 2.765625 -13.15625 C 3.148438 -12.832031 3.457031 -12.410156 3.6875 -11.890625 C 3.914062 -11.367188 4.128906 -10.878906 4.328125 -10.421875 C 4.679688 -9.566406 5.015625 -8.71875 5.328125 -7.875 C 5.648438 -7.03125 5.96875 -6.175781 6.28125 -5.3125 C 6.476562 -5.78125 6.617188 -6.140625 6.703125 -6.390625 C 6.796875 -6.648438 6.78125 -7.003906 6.65625 -7.453125 C 6.601562 -7.671875 6.53125 -7.882812 6.4375 -8.09375 C 6.351562 -8.300781 6.269531 -8.503906 6.1875 -8.703125 C 6.039062 -9.109375 5.90625 -9.519531 5.78125 -9.9375 C 5.65625 -10.351562 5.578125 -10.765625 5.546875 -11.171875 C 5.503906 -11.878906 5.597656 -12.414062 5.828125 -12.78125 C 6.066406 -13.15625 6.378906 -13.367188 6.765625 -13.421875 C 7.148438 -13.472656 7.546875 -13.363281 7.953125 -13.09375 C 8.367188 -12.820312 8.722656 -12.394531 9.015625 -11.8125 C 9.242188 -12.238281 9.550781 -12.585938 9.9375 -12.859375 C 10.320312 -13.140625 10.71875 -13.316406 11.125 -13.390625 C 11.53125 -13.460938 11.898438 -13.382812 12.234375 -13.15625 C 12.566406 -12.925781 12.804688 -12.503906 12.953125 -11.890625 C 13.085938 -11.296875 13.066406 -10.71875 12.890625 -10.15625 C 12.710938 -9.59375 12.484375 -9.039062 12.203125 -8.5 C 11.921875 -7.96875 11.703125 -7.4375 11.546875 -6.90625 C 11.398438 -6.375 11.421875 -5.84375 11.609375 -5.3125 C 11.722656 -5.582031 11.878906 -6.003906 12.078125 -6.578125 C 12.273438 -7.160156 12.503906 -7.804688 12.765625 -8.515625 C 13.023438 -9.222656 13.320312 -9.921875 13.65625 -10.609375 C 13.988281 -11.296875 14.347656 -11.894531 14.734375 -12.40625 C 15.128906 -12.925781 15.550781 -13.273438 16 -13.453125 C 16.445312 -13.628906 16.925781 -13.554688 17.4375 -13.234375 C 17.90625 -12.921875 18.203125 -12.519531 18.328125 -12.03125 C 18.460938 -11.539062 18.472656 -10.992188 18.359375 -10.390625 C 18.242188 -9.785156 18.050781 -9.164062 17.78125 -8.53125 C 17.519531 -7.894531 17.222656 -7.28125 16.890625 -6.6875 C 16.554688 -6.09375 16.234375 -5.550781 15.921875 -5.0625 C 15.609375 -4.570312 15.351562 -4.171875 15.15625 -3.859375 C 14.914062 -3.484375 14.640625 -3.023438 14.328125 -2.484375 C 14.015625 -1.953125 13.660156 -1.460938 13.265625 -1.015625 C 12.878906 -0.566406 12.453125 -0.269531 11.984375 -0.125 C 11.441406 0.0390625 10.972656 0.015625 10.578125 -0.203125 C 10.179688 -0.421875 9.84375 -0.742188 9.5625 -1.171875 C 9.28125 -1.597656 9.050781 -2.023438 8.875 -2.453125 C 8.644531 -2.109375 8.390625 -1.738281 8.109375 -1.34375 C 7.835938 -0.957031 7.53125 -0.628906 7.1875 -0.359375 C 6.84375 -0.0859375 6.425781 0.03125 5.9375 0 Z M 5.9375 0 "/></g></g></g><g fill="#224da5" fill-opacity="1"><g transform="translate(76.003169, 109.299063)"><g><path d="M 3.28125 -1.09375 C 2.507812 -1.226562 1.898438 -1.53125 1.453125 -2 C 1.003906 -2.476562 0.695312 -3.050781 0.53125 -3.71875 C 0.375 -4.382812 0.332031 -5.082031 0.40625 -5.8125 C 0.476562 -6.550781 0.648438 -7.25 0.921875 -7.90625 C 1.203125 -8.570312 1.554688 -9.128906 1.984375 -9.578125 C 2.515625 -10.148438 3.191406 -10.570312 4.015625 -10.84375 C 4.835938 -11.125 5.644531 -11.15625 6.4375 -10.9375 C 6.84375 -10.820312 7.210938 -10.613281 7.546875 -10.3125 C 7.890625 -10.007812 8.160156 -9.660156 8.359375 -9.265625 C 8.554688 -8.878906 8.640625 -8.476562 8.609375 -8.0625 C 8.578125 -7.644531 8.394531 -7.25 8.0625 -6.875 C 7.757812 -6.53125 7.378906 -6.273438 6.921875 -6.109375 C 6.460938 -5.953125 6.015625 -5.832031 5.578125 -5.75 C 5.285156 -5.695312 4.984375 -5.660156 4.671875 -5.640625 C 4.359375 -5.628906 4.09375 -5.550781 3.875 -5.40625 C 3.65625 -5.269531 3.53125 -4.992188 3.5 -4.578125 C 3.46875 -4.128906 3.535156 -3.859375 3.703125 -3.765625 C 3.878906 -3.671875 4.097656 -3.679688 4.359375 -3.796875 C 4.628906 -3.921875 4.910156 -4.085938 5.203125 -4.296875 C 5.503906 -4.515625 5.773438 -4.71875 6.015625 -4.90625 C 6.253906 -5.101562 6.425781 -5.226562 6.53125 -5.28125 C 7.050781 -5.507812 7.425781 -5.523438 7.65625 -5.328125 C 7.882812 -5.128906 8.003906 -4.832031 8.015625 -4.4375 C 8.035156 -4.039062 7.972656 -3.632812 7.828125 -3.21875 C 7.691406 -2.8125 7.519531 -2.503906 7.3125 -2.296875 C 6.800781 -1.796875 6.175781 -1.441406 5.4375 -1.234375 C 4.695312 -1.023438 3.976562 -0.976562 3.28125 -1.09375 Z M 4.890625 -7.28125 C 5.054688 -7.238281 5.269531 -7.242188 5.53125 -7.296875 C 5.789062 -7.359375 6.007812 -7.457031 6.1875 -7.59375 C 6.363281 -7.726562 6.410156 -7.878906 6.328125 -8.046875 C 6.023438 -8.097656 5.742188 -8.054688 5.484375 -7.921875 C 5.222656 -7.796875 5.023438 -7.582031 4.890625 -7.28125 Z M 4.890625 -7.28125 "/></g></g></g><g fill="#224da5" fill-opacity="1"><g transform="translate(84.977305, 109.299063)"><g><path d="M 7.140625 -0.046875 C 6.785156 0.078125 6.484375 0.0078125 6.234375 -0.25 C 5.992188 -0.507812 5.832031 -0.785156 5.75 -1.078125 C 5.144531 -0.617188 4.5625 -0.375 4 -0.34375 C 3.4375 -0.3125 2.914062 -0.425781 2.4375 -0.6875 C 1.96875 -0.957031 1.566406 -1.335938 1.234375 -1.828125 C 0.898438 -2.316406 0.65625 -2.851562 0.5 -3.4375 C 0.34375 -4.03125 0.316406 -4.617188 0.421875 -5.203125 C 0.546875 -5.972656 0.8125 -6.710938 1.21875 -7.421875 C 1.625 -8.128906 2.109375 -8.753906 2.671875 -9.296875 C 2.890625 -9.523438 3.144531 -9.707031 3.4375 -9.84375 C 3.738281 -9.976562 4.019531 -10.128906 4.28125 -10.296875 C 4.539062 -10.460938 4.71875 -10.675781 4.8125 -10.9375 C 4.945312 -11.269531 5.003906 -11.671875 4.984375 -12.140625 C 4.972656 -12.609375 4.953125 -13.082031 4.921875 -13.5625 C 4.898438 -14.039062 4.929688 -14.488281 5.015625 -14.90625 C 5.097656 -15.332031 5.289062 -15.6875 5.59375 -15.96875 C 6.019531 -16.34375 6.378906 -16.488281 6.671875 -16.40625 C 6.960938 -16.320312 7.207031 -16.109375 7.40625 -15.765625 C 7.601562 -15.429688 7.742188 -15.054688 7.828125 -14.640625 C 7.921875 -14.234375 7.96875 -13.894531 7.96875 -13.625 C 7.988281 -12.695312 8 -11.765625 8 -10.828125 C 8 -9.898438 8.003906 -8.972656 8.015625 -8.046875 C 8.035156 -7.046875 8.046875 -6.039062 8.046875 -5.03125 C 8.054688 -4.019531 8 -3.007812 7.875 -2 C 7.851562 -1.8125 7.832031 -1.582031 7.8125 -1.3125 C 7.789062 -1.039062 7.734375 -0.785156 7.640625 -0.546875 C 7.546875 -0.316406 7.378906 -0.148438 7.140625 -0.046875 Z M 3.625 -4.5 C 3.800781 -4.25 3.984375 -4.148438 4.171875 -4.203125 C 4.359375 -4.265625 4.523438 -4.398438 4.671875 -4.609375 C 4.816406 -4.816406 4.898438 -4.992188 4.921875 -5.140625 C 4.992188 -5.578125 4.972656 -6.0625 4.859375 -6.59375 C 4.742188 -7.132812 4.679688 -7.632812 4.671875 -8.09375 C 4.378906 -7.863281 4.101562 -7.535156 3.84375 -7.109375 C 3.59375 -6.691406 3.429688 -6.242188 3.359375 -5.765625 C 3.285156 -5.296875 3.375 -4.875 3.625 -4.5 Z M 3.625 -4.5 "/></g></g></g><g fill="#224da5" fill-opacity="1"><g transform="translate(93.389033, 109.299063)"><g><path d="M 7.140625 -0.046875 C 6.785156 0.078125 6.484375 0.0078125 6.234375 -0.25 C 5.992188 -0.507812 5.832031 -0.785156 5.75 -1.078125 C 5.144531 -0.617188 4.5625 -0.375 4 -0.34375 C 3.4375 -0.3125 2.914062 -0.425781 2.4375 -0.6875 C 1.96875 -0.957031 1.566406 -1.335938 1.234375 -1.828125 C 0.898438 -2.316406 0.65625 -2.851562 0.5 -3.4375 C 0.34375 -4.03125 0.316406 -4.617188 0.421875 -5.203125 C 0.546875 -5.972656 0.8125 -6.710938 1.21875 -7.421875 C 1.625 -8.128906 2.109375 -8.753906 2.671875 -9.296875 C 2.890625 -9.523438 3.144531 -9.707031 3.4375 -9.84375 C 3.738281 -9.976562 4.019531 -10.128906 4.28125 -10.296875 C 4.539062 -10.460938 4.71875 -10.675781 4.8125 -10.9375 C 4.945312 -11.269531 5.003906 -11.671875 4.984375 -12.140625 C 4.972656 -12.609375 4.953125 -13.082031 4.921875 -13.5625 C 4.898438 -14.039062 4.929688 -14.488281 5.015625 -14.90625 C 5.097656 -15.332031 5.289062 -15.6875 5.59375 -15.96875 C 6.019531 -16.34375 6.378906 -16.488281 6.671875 -16.40625 C 6.960938 -16.320312 7.207031 -16.109375 7.40625 -15.765625 C 7.601562 -15.429688 7.742188 -15.054688 7.828125 -14.640625 C 7.921875 -14.234375 7.96875 -13.894531 7.96875 -13.625 C 7.988281 -12.695312 8 -11.765625 8 -10.828125 C 8 -9.898438 8.003906 -8.972656 8.015625 -8.046875 C 8.035156 -7.046875 8.046875 -6.039062 8.046875 -5.03125 C 8.054688 -4.019531 8 -3.007812 7.875 -2 C 7.851562 -1.8125 7.832031 -1.582031 7.8125 -1.3125 C 7.789062 -1.039062 7.734375 -0.785156 7.640625 -0.546875 C 7.546875 -0.316406 7.378906 -0.148438 7.140625 -0.046875 Z M 3.625 -4.5 C 3.800781 -4.25 3.984375 -4.148438 4.171875 -4.203125 C 4.359375 -4.265625 4.523438 -4.398438 4.671875 -4.609375 C 4.816406 -4.816406 4.898438 -4.992188 4.921875 -5.140625 C 4.992188 -5.578125 4.972656 -6.0625 4.859375 -6.59375 C 4.742188 -7.132812 4.679688 -7.632812 4.671875 -8.09375 C 4.378906 -7.863281 4.101562 -7.535156 3.84375 -7.109375 C 3.59375 -6.691406 3.429688 -6.242188 3.359375 -5.765625 C 3.285156 -5.296875 3.375 -4.875 3.625 -4.5 Z M 3.625 -4.5 "/></g></g></g><g fill="#224da5" fill-opacity="1"><g transform="translate(101.800761, 109.299063)"><g><path d="M 0.609375 -11.609375 C 0.410156 -11.972656 0.347656 -12.328125 0.421875 -12.671875 C 0.492188 -13.015625 0.644531 -13.289062 0.875 -13.5 C 1.101562 -13.707031 1.367188 -13.796875 1.671875 -13.765625 C 1.972656 -13.734375 2.253906 -13.519531 2.515625 -13.125 C 2.796875 -12.738281 2.898438 -12.363281 2.828125 -12 C 2.753906 -11.644531 2.585938 -11.359375 2.328125 -11.140625 C 2.066406 -10.929688 1.769531 -10.851562 1.4375 -10.90625 C 1.113281 -10.957031 0.835938 -11.191406 0.609375 -11.609375 Z M 2.390625 -0.265625 C 2.015625 -0.00390625 1.703125 0.078125 1.453125 -0.015625 C 1.210938 -0.117188 1.023438 -0.320312 0.890625 -0.625 C 0.753906 -0.9375 0.648438 -1.289062 0.578125 -1.6875 C 0.503906 -2.082031 0.457031 -2.453125 0.4375 -2.796875 C 0.425781 -3.148438 0.410156 -3.40625 0.390625 -3.5625 C 0.367188 -4.125 0.367188 -4.6875 0.390625 -5.25 C 0.421875 -5.8125 0.453125 -6.367188 0.484375 -6.921875 C 0.503906 -7.210938 0.515625 -7.539062 0.515625 -7.90625 C 0.515625 -8.269531 0.550781 -8.617188 0.625 -8.953125 C 0.695312 -9.296875 0.847656 -9.570312 1.078125 -9.78125 C 1.453125 -10.15625 1.769531 -10.320312 2.03125 -10.28125 C 2.289062 -10.238281 2.5 -10.070312 2.65625 -9.78125 C 2.820312 -9.488281 2.945312 -9.140625 3.03125 -8.734375 C 3.125 -8.335938 3.191406 -7.945312 3.234375 -7.5625 C 3.273438 -7.1875 3.304688 -6.898438 3.328125 -6.703125 C 3.410156 -6.035156 3.425781 -5.367188 3.375 -4.703125 C 3.320312 -4.046875 3.25 -3.382812 3.15625 -2.71875 C 3.125 -2.488281 3.085938 -2.207031 3.046875 -1.875 C 3.015625 -1.550781 2.953125 -1.242188 2.859375 -0.953125 C 2.773438 -0.660156 2.617188 -0.429688 2.390625 -0.265625 Z M 2.390625 -0.265625 "/></g></g></g><g fill="#224da5" fill-opacity="1"><g transform="translate(105.566476, 109.299063)"><g><path d="M 9.484375 1.6875 C 9.128906 1.257812 8.859375 0.742188 8.671875 0.140625 C 8.484375 -0.460938 8.335938 -1.078125 8.234375 -1.703125 C 8.140625 -2.328125 8.046875 -2.898438 7.953125 -3.421875 C 7.878906 -3.765625 7.796875 -4.113281 7.703125 -4.46875 C 7.609375 -4.832031 7.445312 -5.128906 7.21875 -5.359375 C 7 -5.585938 6.664062 -5.675781 6.21875 -5.625 C 5.84375 -5.59375 5.5 -5.460938 5.1875 -5.234375 C 4.875 -5.003906 4.585938 -4.757812 4.328125 -4.5 C 3.972656 -4.175781 3.78125 -3.894531 3.75 -3.65625 C 3.726562 -3.414062 3.71875 -3.066406 3.71875 -2.609375 C 3.695312 -2.285156 3.640625 -1.921875 3.546875 -1.515625 C 3.453125 -1.117188 3.304688 -0.78125 3.109375 -0.5 C 2.910156 -0.21875 2.664062 -0.0546875 2.375 -0.015625 C 2.082031 0.015625 1.738281 -0.175781 1.34375 -0.59375 C 0.96875 -0.976562 0.707031 -1.46875 0.5625 -2.0625 C 0.425781 -2.65625 0.363281 -3.269531 0.375 -3.90625 C 0.382812 -4.539062 0.40625 -5.101562 0.4375 -5.59375 C 0.46875 -6.132812 0.53125 -6.707031 0.625 -7.3125 C 0.71875 -7.914062 0.863281 -8.5 1.0625 -9.0625 C 1.269531 -9.632812 1.5625 -10.128906 1.9375 -10.546875 C 2.28125 -10.921875 2.566406 -11.101562 2.796875 -11.09375 C 3.035156 -11.082031 3.234375 -10.953125 3.390625 -10.703125 C 3.554688 -10.460938 3.679688 -10.160156 3.765625 -9.796875 C 3.859375 -9.441406 3.925781 -9.082031 3.96875 -8.71875 C 4.007812 -8.351562 4.03125 -8.054688 4.03125 -7.828125 C 4.519531 -8.296875 5.050781 -8.671875 5.625 -8.953125 C 6.195312 -9.242188 6.765625 -9.40625 7.328125 -9.4375 C 7.898438 -9.46875 8.4375 -9.332031 8.9375 -9.03125 C 9.4375 -8.726562 9.847656 -8.226562 10.171875 -7.53125 C 10.523438 -6.757812 10.789062 -5.921875 10.96875 -5.015625 C 11.15625 -4.117188 11.28125 -3.210938 11.34375 -2.296875 C 11.40625 -1.378906 11.4375 -0.507812 11.4375 0.3125 C 11.4375 0.625 11.390625 0.9375 11.296875 1.25 C 11.210938 1.570312 11.085938 1.832031 10.921875 2.03125 C 10.765625 2.226562 10.5625 2.3125 10.3125 2.28125 C 10.070312 2.257812 9.796875 2.0625 9.484375 1.6875 Z M 9.484375 1.6875 "/></g></g></g><g fill="#224da5" fill-opacity="1"><g transform="translate(117.377126, 109.299063)"><g><path d="M 2.9375 9.46875 C 2.53125 9.019531 2.300781 8.476562 2.25 7.84375 C 2.195312 7.207031 2.207031 6.613281 2.28125 6.0625 C 2.457031 4.582031 2.882812 3.191406 3.5625 1.890625 C 3.925781 1.179688 4.359375 0.503906 4.859375 -0.140625 C 5.078125 -0.421875 5.34375 -0.707031 5.65625 -1 C 5.976562 -1.289062 6.144531 -1.609375 6.15625 -1.953125 C 5.820312 -1.597656 5.429688 -1.253906 4.984375 -0.921875 C 4.546875 -0.597656 4.09375 -0.363281 3.625 -0.21875 C 3.164062 -0.0703125 2.710938 -0.0625 2.265625 -0.1875 C 1.816406 -0.320312 1.410156 -0.660156 1.046875 -1.203125 C 0.671875 -1.753906 0.453125 -2.351562 0.390625 -3 C 0.328125 -3.65625 0.375 -4.304688 0.53125 -4.953125 C 0.6875 -5.609375 0.898438 -6.21875 1.171875 -6.78125 C 1.515625 -7.414062 1.945312 -7.976562 2.46875 -8.46875 C 2.988281 -8.96875 3.578125 -9.316406 4.234375 -9.515625 C 4.898438 -9.722656 5.609375 -9.707031 6.359375 -9.46875 C 7.191406 -9.21875 7.8125 -8.804688 8.21875 -8.234375 C 8.625 -7.671875 8.90625 -7.019531 9.0625 -6.28125 C 9.21875 -5.550781 9.300781 -4.8125 9.3125 -4.0625 C 9.488281 -4.175781 9.769531 -4.34375 10.15625 -4.5625 C 10.539062 -4.78125 10.960938 -4.988281 11.421875 -5.1875 C 11.878906 -5.382812 12.320312 -5.519531 12.75 -5.59375 C 13.1875 -5.675781 13.546875 -5.644531 13.828125 -5.5 C 14.109375 -5.351562 14.269531 -5.046875 14.3125 -4.578125 C 14.34375 -4.171875 14.25 -3.804688 14.03125 -3.484375 C 13.820312 -3.160156 13.5625 -2.878906 13.25 -2.640625 C 12.9375 -2.398438 12.628906 -2.179688 12.328125 -1.984375 C 12.078125 -1.835938 11.828125 -1.691406 11.578125 -1.546875 C 11.328125 -1.410156 11.070312 -1.269531 10.8125 -1.125 L 10.03125 -0.609375 C 9.8125 -0.460938 9.65625 -0.351562 9.5625 -0.28125 C 9.46875 -0.207031 9.394531 -0.117188 9.34375 -0.015625 C 9.289062 0.0859375 9.234375 0.265625 9.171875 0.515625 C 8.992188 1.242188 8.851562 1.988281 8.75 2.75 C 8.65625 3.519531 8.535156 4.273438 8.390625 5.015625 C 8.242188 5.765625 8.019531 6.476562 7.71875 7.15625 C 7.414062 7.84375 6.960938 8.484375 6.359375 9.078125 C 6.046875 9.378906 5.6875 9.628906 5.28125 9.828125 C 4.882812 10.023438 4.484375 10.109375 4.078125 10.078125 C 3.671875 10.046875 3.289062 9.84375 2.9375 9.46875 Z M 5.375 -3.984375 C 5.65625 -4.304688 5.90625 -4.671875 6.125 -5.078125 C 6.34375 -5.492188 6.539062 -5.894531 6.71875 -6.28125 C 6.21875 -6.382812 5.734375 -6.289062 5.265625 -6 C 4.804688 -5.71875 4.460938 -5.335938 4.234375 -4.859375 C 4.054688 -4.503906 4.003906 -4.195312 4.078125 -3.9375 C 4.160156 -3.6875 4.320312 -3.550781 4.5625 -3.53125 C 4.8125 -3.507812 5.082031 -3.660156 5.375 -3.984375 Z M 4.421875 7.484375 C 4.597656 7.515625 4.769531 7.390625 4.9375 7.109375 C 5.113281 6.835938 5.273438 6.5 5.421875 6.09375 C 5.578125 5.695312 5.691406 5.332031 5.765625 5 C 5.847656 4.664062 5.898438 4.46875 5.921875 4.40625 C 5.953125 4.15625 5.96875 3.90625 5.96875 3.65625 C 5.976562 3.414062 5.992188 3.175781 6.015625 2.9375 C 5.953125 3.019531 5.820312 3.222656 5.625 3.546875 C 5.425781 3.867188 5.21875 4.242188 5 4.671875 C 4.78125 5.097656 4.585938 5.515625 4.421875 5.921875 C 4.265625 6.335938 4.171875 6.691406 4.140625 6.984375 C 4.117188 7.285156 4.210938 7.453125 4.421875 7.484375 Z M 4.421875 7.484375 "/></g></g></g><g clip-path="url(#25f0419ee7)"><path fill="#224da5" d="M 171.234375 165.308594 C 167.625 159.246094 163.625 153.390625 160.1875 147.230469 C 156.980469 141.476562 154.847656 135.296875 150.988281 129.9375 C 150.035156 128.617188 148.90625 127.445312 147.96875 126.113281 C 146.554688 124.113281 145.472656 121.851562 144.042969 119.859375 C 142.871094 118.222656 141.359375 116.996094 140.390625 115.261719 C 142.953125 112.3125 145.738281 109.5 148.28125 106.488281 C 156.363281 96.925781 163.578125 86.074219 169.019531 74.765625 C 169.320312 74.140625 169.988281 72.046875 170.265625 71.707031 C 170.496094 71.425781 173.09375 70.089844 173.710938 69.628906 C 175.886719 68.015625 177.765625 65.363281 178.601562 62.761719 C 179.109375 61.183594 179.007812 60.109375 178.269531 58.609375 C 177.695312 57.453125 176.851562 56.996094 176.007812 56.136719 C 175.609375 55.730469 175.609375 55.167969 174.800781 54.882812 L 174.960938 50.863281 C 174.496094 44.96875 175.132812 38.980469 172.882812 33.289062 C 169.398438 24.484375 159.789062 9.753906 150.355469 6.867188 C 140.335938 3.804688 127.546875 9.640625 119.785156 15.871094 C 114.667969 19.980469 111.023438 25.601562 108.984375 31.832031 C 107.4375 30.375 106.296875 28.503906 104.867188 26.917969 C 103.140625 25.003906 101.203125 23.464844 99.335938 21.746094 C 90.574219 13.691406 77.875 0.867188 65.398438 0.0703125 C 55.566406 -0.5625 42.894531 3.257812 34.753906 8.738281 C 24.277344 15.792969 17.660156 32.859375 15.675781 44.929688 C 15.480469 46.105469 15.277344 50.078125 14.703125 50.800781 C 14.222656 51.394531 13.019531 51.679688 13.089844 52.808594 L 13.5 53.214844 C 14.21875 53.402344 15.652344 52.082031 16.300781 51.695312 C 17.078125 51.234375 22.777344 47.886719 23.195312 48.328125 C 23.226562 48.574219 23.183594 48.800781 23.113281 49.035156 C 22.972656 49.511719 20.34375 52.992188 19.863281 53.503906 C 19.351562 54.046875 17.808594 54.671875 18.261719 55.445312 C 17.464844 55.617188 18.769531 56.585938 19.226562 56.574219 C 19.734375 56.5625 20.128906 56.175781 20.523438 55.921875 L 24.070312 54.910156 L 16.910156 60.734375 C 17.011719 61.019531 16.835938 61.523438 16.878906 61.71875 C 16.910156 61.851562 17.109375 61.796875 17.1875 61.933594 C 17.214844 61.976562 16.785156 62.335938 17.816406 62.300781 C 19.121094 62.253906 20.613281 61.59375 21.964844 61.75 C 20.710938 62.839844 19.003906 63.539062 17.519531 64.324219 C 17.261719 64.460938 17.097656 64.773438 16.867188 64.898438 C 16.132812 65.28125 13.84375 65.738281 13.628906 66.566406 C 13.371094 67.542969 13.878906 68.511719 14.945312 68.15625 C 15.632812 73.511719 16.394531 78.863281 17.667969 84.125 C 20.710938 96.734375 28.375 105.679688 35.546875 116.070312 C 36.984375 118.15625 38.074219 120.242188 39.691406 122.28125 C 40.332031 123.09375 41.085938 123.820312 41.761719 124.601562 C 41.03125 131.976562 40.742188 139.429688 40.730469 146.859375 C 40.722656 152.359375 40.308594 157.941406 40.378906 163.527344 C 40.390625 164.453125 40.71875 165.730469 40.652344 166.683594 C 40.320312 171.46875 39.472656 175.738281 39.679688 180.722656 C 39.804688 183.773438 40.011719 185.671875 39.863281 188.789062 C 39.515625 196.074219 39.453125 203.273438 39.519531 210.535156 C 39.539062 213.082031 39.238281 216.363281 39.511719 218.792969 C 39.703125 220.523438 41.171875 220.660156 42.148438 219.449219 C 42.574219 218.917969 42.582031 218.019531 43.191406 217.652344 L 42.367188 219.847656 C 42.429688 220.703125 45.136719 220.929688 45.769531 220.96875 C 47.480469 221.082031 49.367188 220.796875 51.082031 220.636719 L 51.792969 227.386719 C 51.503906 227.527344 51.449219 226.75 51.269531 226.511719 C 50.589844 225.601562 50.003906 226.464844 49.257812 226.4375 C 46.289062 225.496094 43.117188 225.652344 40.039062 225.546875 C 40.449219 224.734375 41.066406 223.714844 40.578125 222.816406 L 39.976562 222.761719 C 38.925781 224.667969 37.765625 226.703125 35.882812 227.972656 C 34.660156 228.796875 29.613281 231.578125 28.371094 231.6875 C 27.429688 231.777344 26.21875 231.117188 25.730469 232.222656 C 25.199219 233.4375 28.480469 235.140625 29.359375 235.609375 C 32.964844 237.535156 36.230469 237.808594 40.304688 237.484375 C 42.105469 237.34375 43.488281 236.265625 44.878906 236.09375 C 46.660156 235.878906 49.457031 236.242188 50.917969 235.816406 C 51.839844 235.550781 53.441406 234.097656 53.730469 233.1875 C 54.089844 232.054688 53.8125 230.6875 53.894531 229.496094 L 53.007812 220.386719 C 53.039062 220.128906 55.039062 220.257812 55.226562 219.0625 C 55.261719 218.824219 55.089844 218.390625 55.121094 218.359375 C 55.148438 218.332031 55.5625 218.367188 55.835938 218.101562 C 56.71875 217.25 56.171875 215.703125 56.195312 214.773438 C 56.273438 211.6875 56.800781 208.773438 56.871094 205.625 C 57.074219 195.964844 57.195312 186.144531 58.496094 176.53125 C 59.097656 172.113281 58.898438 167.585938 59.765625 163.25 C 60.140625 161.367188 60.871094 159.539062 60.957031 157.597656 L 62.054688 153.78125 C 63.230469 157.886719 64.019531 162.066406 64.421875 166.328125 C 64.921875 171.671875 64.640625 176.957031 64.949219 182.292969 C 65.132812 185.4375 65.972656 189.167969 66.007812 192.128906 C 66.023438 193.441406 65.664062 195.152344 65.648438 196.492188 C 65.542969 204.464844 66.023438 212.382812 66.566406 220.328125 C 66.605469 220.546875 66.957031 221.371094 67.097656 221.460938 C 67.171875 221.507812 68.601562 222.003906 68.726562 222.023438 C 69.523438 222.15625 70.117188 221.867188 70.816406 221.851562 C 73.242188 221.804688 75.679688 221.902344 78.105469 221.863281 C 77.753906 222.601562 78.402344 222.691406 78.59375 223.03125 C 78.816406 223.421875 79 225.664062 78.753906 226.023438 C 78.578125 226.285156 78.03125 226.285156 78.28125 227.125 C 77.949219 227.195312 77.761719 226.859375 77.472656 226.824219 C 77.027344 226.765625 76.128906 227.113281 75.570312 227.132812 C 74.417969 227.171875 73.238281 226.996094 72.152344 227.007812 C 71.554688 227.015625 69.195312 227.378906 68.921875 227.28125 C 68.714844 227.207031 68.707031 226.921875 68.574219 226.820312 C 68.441406 226.71875 68.152344 226.800781 68.117188 226.765625 C 67.984375 226.625 68.714844 223.601562 68.25 222.949219 C 66.75 222.445312 67.039062 224.683594 66.828125 225.757812 C 66.425781 227.769531 66.441406 227.164062 64.964844 228.105469 C 62.765625 229.5 61.09375 231.261719 59.148438 232.640625 C 58.054688 233.417969 56.644531 233.386719 56.089844 234.851562 C 55.289062 236.96875 57.558594 237.066406 59.054688 236.9375 C 63.480469 236.554688 67.777344 237.417969 72.238281 237.308594 C 73.976562 237.265625 77.703125 237.152344 79.164062 236.515625 C 79.792969 236.242188 80.609375 235.839844 80.726562 235.097656 C 80.839844 234.402344 80.886719 232.921875 80.917969 232.132812 C 81.058594 228.816406 81.183594 224.929688 80.195312 221.789062 C 80.855469 221.460938 81.394531 221.226562 81.878906 220.636719 C 82.066406 220.410156 83.339844 218.574219 83.382812 218.4375 C 83.519531 217.988281 83.324219 217.75 83.367188 217.398438 C 84.71875 205.96875 84.535156 193.664062 84.765625 182.113281 C 84.835938 178.558594 85.09375 174.96875 85.105469 171.4375 C 85.105469 171.167969 84.890625 170.84375 84.933594 170.539062 L 85.125 162.207031 C 85.296875 162.019531 89.085938 163.941406 89.945312 163.941406 C 91.535156 163.9375 92.597656 162.03125 93.535156 161.058594 C 95.105469 159.425781 96.761719 158.054688 98.457031 156.507812 C 103.402344 151.996094 108.320312 147.402344 113.195312 142.820312 C 120.835938 135.644531 127.964844 128.054688 135.382812 120.617188 C 136.523438 119.476562 137.820312 118.488281 138.726562 117.113281 C 138.976562 117.050781 139.742188 117.964844 139.929688 118.183594 C 142.15625 120.761719 144.3125 124.582031 146.28125 127.449219 C 148.648438 130.902344 151.152344 134.390625 153.199219 138.078125 C 154.859375 141.066406 156.082031 144.5 157.726562 147.585938 C 161.652344 154.953125 166.363281 162.070312 170.597656 169.28125 C 174.855469 176.535156 179.5 183.398438 178.992188 192.304688 C 178.699219 197.457031 176.839844 199.566406 172.140625 201.417969 C 169.5 202.460938 167.378906 202.015625 164.945312 202.648438 C 163.199219 203.097656 160.929688 204.699219 159.382812 204.976562 C 151.078125 206.46875 144.25 207.65625 135.734375 207.125 C 134.355469 207.039062 129.363281 207.882812 128.15625 208.492188 C 127.511719 208.820312 126.917969 209.546875 126.265625 209.9375 C 125.601562 210.335938 124.726562 210.597656 124.015625 211.019531 C 120.519531 213.097656 117.046875 216.617188 112.597656 216.578125 C 106.519531 216.53125 106.113281 205.136719 99.152344 210.894531 C 97.089844 212.601562 95.851562 215.28125 92.746094 215.203125 C 90.914062 215.160156 89.125 214.699219 88.421875 212.859375 C 86.625 208.160156 88.519531 201.949219 89.132812 197.191406 C 89.523438 194.179688 89.605469 191.121094 90.0625 188.117188 C 90.4375 185.613281 91.273438 183.078125 91.441406 180.550781 C 91.722656 176.375 90.957031 172.351562 90.558594 168.257812 C 90.492188 167.542969 90.882812 165.058594 89.769531 165.179688 C 89.222656 165.238281 88.914062 166.609375 88.847656 167.078125 C 88.148438 172.300781 89.203125 177.613281 88.800781 182.820312 C 88.488281 186.855469 87.796875 191.730469 87.199219 195.78125 C 86.34375 201.5625 84.546875 207.257812 86.046875 213.132812 C 87.21875 217.722656 93.015625 218.679688 96.726562 216.539062 C 98.023438 215.789062 101.585938 211.636719 102.5625 211.683594 C 103.535156 211.730469 105.714844 215.269531 106.53125 216.160156 C 108.320312 218.109375 110.738281 219.296875 113.453125 219.054688 C 114.726562 218.945312 115.992188 218.265625 117.226562 218.003906 C 117.058594 219.027344 117.753906 220.339844 117.753906 221.25 C 117.753906 223.574219 117.964844 226.097656 117.136719 228.355469 C 116.601562 229.800781 113.914062 233.902344 112.722656 234.820312 C 112.230469 235.203125 111.628906 235.097656 111.476562 236.039062 C 111.316406 237.050781 111.980469 236.871094 112.101562 236.996094 C 112.195312 237.09375 112.101562 237.394531 112.15625 237.453125 C 112.515625 237.832031 116.773438 236.214844 117.609375 236.023438 C 119.390625 235.613281 123.179688 235.542969 124.484375 234.828125 C 126.007812 233.992188 126.699219 230.347656 126.703125 228.710938 L 127.492188 230.289062 C 127.703125 231.140625 127.929688 231.988281 128.085938 232.851562 C 128.152344 233.230469 128.007812 233.875 128.144531 234.113281 C 128.171875 234.164062 129.0625 234.746094 129.132812 234.761719 C 130.878906 235.160156 131.03125 233.410156 131.09375 232.140625 L 128.542969 212.03125 C 128.640625 211.816406 131.695312 210.503906 132.136719 210.371094 C 135.46875 209.375 138.558594 210.046875 141.960938 209.941406 C 142.652344 215.164062 144.007812 220.335938 143.726562 225.648438 C 143.6875 226.386719 143.417969 227.132812 143.539062 227.917969 C 142.503906 229.859375 140.617188 231.160156 139.242188 232.746094 C 138.292969 233.835938 136.675781 236.160156 139.257812 236.234375 C 139.339844 236.238281 139.308594 235.9375 139.445312 235.90625 C 141.511719 235.460938 143.757812 235.355469 145.824219 234.765625 C 148.445312 234.015625 151.335938 232.460938 151.964844 229.589844 C 152.429688 229.546875 152.246094 229.582031 152.3125 229.851562 C 152.5625 230.957031 152.640625 231.972656 153.402344 232.894531 C 155.863281 233.132812 155.535156 229.234375 155.46875 227.574219 C 155.300781 223.238281 154.914062 218.023438 154.417969 213.710938 C 154.214844 211.96875 153.867188 210.214844 153.367188 208.535156 C 156.492188 208.277344 159.257812 207.5 162.136719 206.339844 C 162.835938 206.058594 163.59375 205.5 164.203125 205.25 C 167.191406 204.015625 170.1875 204.734375 173.460938 203.277344 C 177.960938 201.273438 180.289062 199.21875 181.039062 194.1875 C 182.65625 183.308594 176.492188 174.15625 171.226562 165.320312 Z M 39.511719 227.652344 C 39.304688 228.027344 38.5 228.128906 38.109375 228.175781 C 38.464844 227.484375 38.8125 227.4375 39.511719 227.652344 Z M 30.039062 233.523438 L 30.738281 233.085938 L 30.914062 233.964844 Z M 37.84375 235.195312 C 37.644531 235.183594 37.359375 235.308594 37.40625 235.023438 C 38.105469 234.867188 38.714844 234.425781 39.25 233.972656 L 39.6875 235.195312 C 39.078125 235.175781 38.453125 235.226562 37.84375 235.195312 Z M 41.699219 229.921875 C 40.359375 230.964844 38.867188 232.183594 37.449219 233.085938 C 36.960938 233.398438 36.199219 233.699219 35.652344 233.964844 C 36.640625 232.503906 38.28125 231.886719 39.667969 230.878906 C 41.046875 229.875 42.207031 228.285156 43.898438 228.003906 C 43.265625 228.726562 42.449219 229.335938 41.699219 229.925781 Z M 44.425781 227.824219 L 44.074219 227.824219 L 44.074219 227.652344 L 44.425781 227.652344 Z M 45.921875 229.757812 L 45.125 229.925781 C 45.414062 229.464844 45.90625 229.078125 46.1875 228.613281 C 46.351562 228.34375 46.113281 227.933594 46.519531 227.738281 L 48.285156 228 Z M 49.078125 233.269531 C 48.378906 234.125 48 232.9375 49.160156 232.914062 C 49.179688 233.070312 49.183594 233.136719 49.078125 233.269531 Z M 61.09375 234.753906 L 61.355469 234.496094 L 61.617188 234.839844 Z M 65.300781 233.789062 L 64.953125 233.789062 L 64.953125 233.617188 L 65.300781 233.617188 Z M 73.019531 229.753906 L 72.847656 229.753906 L 72.847656 229.402344 L 73.019531 229.402344 Z M 176.671875 60.742188 C 177.0625 63.511719 172.824219 67.949219 170.625 69.351562 C 169.136719 70.300781 167.699219 70.429688 166.007812 70.785156 C 166.003906 70.308594 166.480469 70.265625 166.746094 69.863281 C 167.113281 69.308594 167.167969 68.929688 166.691406 68.429688 C 166.363281 68.085938 165.726562 68 165.480469 67.632812 C 166.332031 67.148438 168.347656 66.726562 169.042969 66.238281 C 169.164062 66.152344 169.628906 65.207031 169.628906 65.085938 C 169.632812 63.789062 166.144531 64.304688 165.304688 63.859375 L 166.882812 62.804688 L 173.027344 60.785156 C 173.019531 59.210938 171.523438 59.15625 170.433594 58.554688 L 167.0625 57.804688 C 168.328125 57.3125 170.363281 56.394531 171.714844 56.425781 C 173.847656 56.480469 176.371094 58.605469 176.671875 60.742188 Z M 41.269531 198.171875 C 41.074219 197.078125 41.96875 196.253906 41.980469 195.199219 L 42.671875 195.191406 C 42.800781 195.3125 41.648438 197.949219 41.269531 198.171875 Z M 42.496094 158.167969 L 42.496094 154.304688 L 42.671875 154.304688 L 42.671875 158.167969 Z M 42.667969 212.210938 L 42.667969 212.558594 L 42.496094 212.558594 L 42.496094 212.210938 Z M 41.613281 217.210938 C 41.488281 216.25 42.023438 215.6875 42.582031 215.015625 C 43.351562 215.355469 41.949219 216.902344 41.964844 217.472656 C 41.710938 217.722656 41.644531 217.449219 41.613281 217.210938 Z M 41.964844 218.523438 L 42.007812 217.777344 L 42.84375 216.246094 Z M 43.019531 212.03125 L 42.847656 212.03125 L 42.847656 211.679688 L 43.019531 211.679688 Z M 43.371094 211.503906 L 43.199219 211.503906 L 43.199219 211.15625 L 43.371094 211.15625 Z M 43.46875 209.058594 C 43.757812 208.429688 44.375 207.519531 44.949219 207.121094 C 45 208.234375 43.878906 208.664062 43.542969 209.574219 C 43.207031 209.601562 43.390625 209.226562 43.46875 209.058594 Z M 43.898438 197.292969 L 43.898438 196.945312 L 44.070312 196.945312 L 44.070312 197.292969 Z M 43.894531 216.421875 L 43.894531 216.769531 L 43.722656 216.769531 L 43.722656 216.421875 Z M 43.722656 218.789062 C 44.167969 218.171875 44.496094 218.871094 45.011719 218.871094 C 46.214844 218.871094 47.152344 217.675781 48.105469 217.121094 L 48.457031 218.875 C 46.878906 218.644531 45.183594 219.328125 43.722656 218.785156 Z M 47.046875 197.375 L 47.75 197.476562 L 47.480469 199.035156 L 46.179688 200.804688 C 46.019531 199.480469 46.304688 198.457031 47.046875 197.375 Z M 46.175781 184.484375 L 46.179688 177.117188 L 46.710938 177.207031 C 47.121094 177.566406 46.71875 178.171875 46.707031 178.609375 C 46.65625 180.527344 46.75 182.679688 46.175781 184.484375 Z M 48.984375 205.363281 C 48.675781 205.363281 48.789062 204.59375 48.804688 204.394531 C 48.832031 203.953125 48.929688 203.089844 49.027344 202.6875 C 49.09375 202.414062 49.425781 201.667969 49.683594 201.503906 C 50.117188 203.175781 49.699219 203.9375 48.984375 205.363281 Z M 49.882812 170.734375 C 49.988281 169.578125 50.074219 168.371094 50.234375 167.222656 C 50.265625 167 50.308594 166.269531 50.5625 166.238281 L 50.035156 171.324219 C 49.722656 171.363281 49.867188 170.929688 49.882812 170.730469 Z M 48.636719 137.8125 C 49.023438 138.023438 49.109375 138.824219 49.160156 139.214844 Z M 48.808594 144.832031 C 47.753906 144.101562 47.613281 142.671875 47.582031 141.5 Z M 47.757812 149.921875 C 47.988281 149.875 48.039062 150.242188 48.0625 150.402344 C 48.160156 150.992188 48.132812 151.613281 48.28125 152.199219 C 47.351562 151.792969 48.050781 150.734375 47.757812 149.921875 Z M 48.085938 214.191406 L 46.179688 216.070312 C 46.148438 215.703125 47.394531 212.78125 47.578125 212.910156 Z M 48.808594 211.332031 C 48.195312 211.105469 48.714844 210.367188 48.71875 209.921875 L 49.507812 208.347656 L 48.808594 211.328125 Z M 50.128906 205.542969 L 50.214844 206.242188 L 49.863281 206.242188 C 49.820312 205.917969 49.855469 205.730469 50.128906 205.542969 Z M 50.039062 216.945312 C 50.09375 216.292969 50.398438 215.617188 50.65625 215.019531 C 50.789062 214.71875 50.976562 214.109375 51.265625 213.964844 C 51.097656 214.953125 50.789062 216.246094 50.039062 216.945312 Z M 51.265625 140.09375 C 52.292969 140.230469 52.058594 141.652344 51.96875 142.375 C 51.464844 142.222656 51.101562 140.289062 51.265625 140.09375 Z M 52.667969 217.824219 L 51.972656 217.390625 L 52.84375 215.71875 Z M 52.320312 183.78125 L 52.320312 183.257812 L 52.492188 183.257812 L 52.492188 183.78125 Z M 52.671875 176.765625 L 52.671875 176.066406 L 52.84375 176.066406 L 52.84375 176.765625 Z M 53.019531 174.308594 C 52.699219 174.242188 52.695312 173.964844 52.664062 173.703125 C 52.535156 172.589844 52.824219 171.140625 52.855469 170.015625 C 52.894531 168.34375 52.660156 166.628906 53.109375 165.007812 Z M 53.726562 161.851562 L 54.070312 160.097656 C 54 160.640625 54.335938 161.550781 53.726562 161.851562 Z M 60.210938 148.867188 L 60.042969 148.867188 L 60.042969 148.515625 L 60.210938 148.515625 Z M 62.671875 150.972656 L 62.5 150.53125 L 62.757812 150.273438 L 62.84375 150.972656 Z M 67.40625 198.789062 C 67.386719 198.351562 67.417969 197.90625 67.410156 197.46875 C 68.066406 197.839844 67.433594 198.796875 67.578125 199.398438 C 67.273438 199.441406 67.414062 199 67.40625 198.789062 Z M 67.933594 165.535156 C 67.667969 165.800781 67.183594 165.011719 67.671875 165.011719 C 67.785156 165.011719 68.035156 165.433594 67.933594 165.535156 Z M 67.933594 155.535156 L 67.933594 155.183594 L 68.105469 155.183594 L 68.105469 155.535156 Z M 67.847656 209.929688 L 67.402344 203.179688 L 67.933594 203.085938 C 68.152344 203.980469 68.050781 204.890625 68.117188 205.796875 C 68.167969 206.507812 68.246094 206.210938 68.179688 207.066406 C 68.152344 207.40625 68 209.929688 67.847656 209.929688 Z M 68.460938 218.523438 L 67.933594 210.277344 L 68.59375 211.285156 C 68.988281 213.605469 69.113281 215.976562 70.039062 218.171875 Z M 68.644531 203.167969 C 68.65625 202.851562 68.667969 202.277344 68.898438 202.03125 C 69.023438 202.90625 69.132812 203.792969 68.984375 204.664062 C 68.519531 205.253906 68.640625 203.34375 68.644531 203.167969 Z M 70.589844 186.53125 L 70.914062 188.167969 C 70.253906 188.246094 70.636719 187.023438 70.589844 186.53125 Z M 79.257812 219.761719 C 76.648438 220.046875 74.027344 219.871094 71.445312 220.101562 L 73.050781 219.523438 C 74.183594 219.269531 76.371094 218.859375 77.457031 219.089844 C 77.796875 219.164062 78.109375 219.503906 78.410156 219.546875 C 78.816406 219.601562 79.390625 219.277344 79.863281 219.40625 C 79.796875 219.722656 79.519531 219.730469 79.257812 219.761719 Z M 74.949219 207.296875 L 74.949219 208.171875 L 74.777344 208.171875 L 74.777344 207.296875 Z M 74.777344 205.71875 C 75.167969 205.90625 75.097656 206.753906 75.125 207.121094 C 74.730469 206.929688 74.804688 206.082031 74.777344 205.71875 Z M 74.953125 213.964844 C 75.398438 214.175781 75.230469 214.960938 75.527344 215.316406 C 75.855469 215.714844 76.480469 215.691406 76.152344 216.742188 L 74.425781 216.941406 L 74.953125 213.960938 Z M 73.722656 210.804688 C 73.351562 210.777344 73.582031 209.964844 73.628906 209.742188 C 73.738281 209.175781 73.957031 208.179688 74.421875 207.820312 C 74.746094 209.03125 74.019531 209.691406 73.722656 210.800781 Z M 77.058594 160.097656 L 77.144531 159.394531 L 77.40625 159.832031 Z M 78.636719 213.613281 L 78.636719 209.925781 L 79.492188 210.199219 C 79.273438 210.910156 79.238281 211.664062 79.082031 212.390625 C 79.011719 212.703125 78.921875 213.464844 78.636719 213.613281 Z M 79.515625 168.691406 L 79.515625 168.34375 L 79.6875 168.34375 L 79.6875 168.691406 Z M 80.238281 217.273438 C 80.160156 216.917969 80.144531 216.371094 80.5625 216.242188 C 80.5 216.816406 80.894531 216.917969 81.265625 217.207031 C 80.984375 217.636719 80.609375 217.417969 80.238281 217.273438 Z M 123.28125 129.554688 C 113.691406 139.476562 103.777344 149.238281 93.113281 157.996094 C 92.617188 158.402344 91.523438 159.84375 91.273438 159.996094 C 91.152344 160.070312 90.832031 159.949219 90.609375 160.035156 C 89.191406 160.589844 89.460938 160.71875 87.9375 160.179688 C 80.667969 157.617188 77.679688 153.804688 72.050781 149.222656 C 65.414062 143.816406 59.007812 139.828125 52.90625 133.539062 C 43.230469 123.574219 32.226562 108.648438 25.15625 96.632812 C 20.640625 88.957031 18.550781 78.792969 17.582031 69.996094 C 17.507812 69.347656 17.300781 67.535156 17.402344 67.011719 C 17.457031 66.742188 17.535156 66.742188 17.683594 66.59375 C 18.40625 65.871094 20.878906 64.90625 21.949219 64.191406 C 23.40625 63.21875 24.832031 62.261719 23.851562 60.300781 L 21.089844 59.558594 C 22.511719 58.496094 24.285156 57.4375 25.566406 56.230469 C 28.609375 53.355469 25.753906 52.253906 22.839844 53.066406 C 23.863281 51.46875 25.714844 50.0625 25.222656 47.964844 C 24.414062 44.535156 19.292969 47.679688 17.664062 48.855469 C 17.496094 48.835938 17.574219 48.5625 17.578125 48.421875 C 18.097656 38.601562 24.425781 22.84375 30.820312 15.339844 C 37.878906 7.0625 54.535156 1.695312 65.210938 2.359375 C 73.03125 2.84375 81.269531 8.734375 87.058594 13.671875 C 92.46875 18.28125 99.722656 24.488281 104.246094 29.820312 C 105.210938 30.957031 107.289062 34.273438 108.335938 34.851562 C 109.25 35.351562 109.898438 35.164062 110.460938 34.273438 C 111.179688 33.136719 111.828125 30.796875 112.464844 29.433594 C 115.726562 22.46875 119.664062 18.203125 126.304688 14.324219 C 133.792969 9.949219 145.339844 5.546875 153.363281 10.875 C 160.332031 15.507812 170.238281 29.875 171.570312 38.113281 C 172.132812 41.5625 172.28125 46.609375 172.332031 50.164062 C 172.351562 51.671875 172.21875 53.144531 172.148438 54.644531 C 170.082031 54.371094 164.699219 56.023438 163.769531 57.929688 C 162.59375 60.328125 165.898438 59.945312 167.238281 60.347656 C 165.96875 60.917969 164.640625 61.554688 163.566406 62.46875 C 161.726562 64.035156 161.109375 65.816406 164.253906 65.875 C 164.339844 66.285156 164.199219 66.15625 164.027344 66.265625 C 163.40625 66.667969 162.402344 66.746094 162.367188 67.75 C 162.324219 68.941406 164.25 69.265625 164.25 69.46875 C 163.746094 69.976562 162.304688 70.738281 162.355469 71.550781 C 162.394531 72.167969 163.457031 72.714844 163.992188 72.714844 L 166.886719 72.714844 C 163.007812 81.136719 158.234375 89.105469 152.742188 96.5625 C 144.050781 108.367188 133.441406 119.042969 123.28125 129.554688 Z M 126.84375 219.453125 C 126.804688 219.59375 125.515625 221.605469 125.300781 221.945312 C 124.976562 222.453125 124.339844 222.949219 124.09375 223.382812 C 123.78125 223.929688 123.878906 224.511719 123.269531 225.351562 C 122.019531 227.089844 120.199219 228.8125 118.640625 230.28125 C 118.898438 229.234375 119.382812 228.296875 119.492188 227.1875 C 119.8125 223.984375 119.167969 220.410156 118.464844 217.296875 L 126.089844 213.433594 C 126.351562 213.484375 126.464844 214.792969 126.511719 215.121094 C 126.625 215.945312 127.019531 218.867188 126.847656 219.453125 Z M 148.636719 230.984375 L 148.464844 230.984375 L 148.464844 230.632812 L 148.636719 230.632812 Z M 148.8125 230.457031 C 148.835938 230.078125 149.199219 229.59375 149.511719 229.402344 C 149.523438 229.816406 149.179688 230.28125 148.8125 230.457031 Z M 150.21875 226.769531 L 150.21875 226.511719 C 150.21875 226.511719 150.480469 226.25 150.480469 226.25 L 150.917969 226.421875 L 150.917969 226.769531 C 150.917969 226.769531 150.21875 226.769531 150.21875 226.769531 Z M 152.5 217.390625 C 152.421875 217.800781 152.105469 217.738281 152.023438 217.871094 C 151.789062 218.242188 151.78125 219.527344 151.566406 220.136719 C 151.03125 221.660156 147.703125 224.894531 146.363281 225.984375 C 146.25 226.078125 145.695312 226.476562 145.65625 226.417969 C 145.5 223.695312 145.441406 220.996094 145.105469 218.285156 C 144.746094 215.394531 144.09375 212.5625 143.375 209.75 C 145.945312 209.917969 148.390625 208.972656 150.925781 208.769531 C 151.800781 210.507812 152.121094 212.472656 152.324219 214.402344 C 152.390625 215.054688 152.601562 216.871094 152.503906 217.390625 Z M 152.5 217.390625 " fill-opacity="1" fill-rule="nonzero"/></g><path fill="#224da5" d="M 129.753906 183.796875 C 129.9375 183.699219 130.015625 183.332031 130.03125 183.148438 C 130.097656 182.289062 128.976562 179.664062 128.6875 178.554688 C 127.164062 172.71875 126.589844 166.496094 124.898438 160.675781 C 123.136719 159.769531 123.796875 161.039062 123.886719 161.953125 C 124.410156 167.136719 125.824219 175.476562 127.324219 180.449219 C 127.609375 181.402344 128.414062 184.070312 129.753906 183.796875 Z M 129.753906 183.796875 " fill-opacity="1" fill-rule="nonzero"/><path fill="#224da5" d="M 149.152344 184.40625 C 149.847656 184.761719 149.695312 183.703125 150.570312 183.957031 C 147.871094 177.78125 146.046875 171.261719 143.6875 164.960938 C 143.398438 164.183594 142.746094 163.199219 142.441406 162.375 C 142.386719 162.234375 141.90625 159.300781 141.269531 159.921875 C 141.527344 160.859375 141.304688 161.542969 141.570312 162.515625 C 143.1875 168.390625 145.71875 176.074219 147.980469 181.722656 C 148.34375 182.628906 148.753906 183.515625 149.152344 184.40625 Z M 149.152344 184.40625 " fill-opacity="1" fill-rule="nonzero"/><path fill="#224da5" d="M 107.226562 185.109375 C 106.835938 181.34375 105.914062 177.519531 105 173.820312 C 104.554688 172.019531 104.828125 169.996094 103.90625 168.253906 L 103.570312 168.3125 L 103.375 167.992188 C 103.328125 168.769531 103.453125 169.550781 103.597656 170.3125 C 104.355469 174.34375 105.230469 178.5 105.652344 182.644531 C 106 186.054688 105.871094 189.796875 106.375 193.152344 C 106.507812 194.023438 106.851562 194.75 107.496094 195.359375 C 108.527344 194.46875 107.792969 193.292969 107.6875 192.050781 C 107.621094 191.242188 107.738281 189.664062 107.578125 188.992188 C 107.546875 188.847656 107.238281 188.933594 107.214844 188.613281 C 107.136719 187.628906 107.351562 186.324219 107.226562 185.109375 Z M 107.226562 185.109375 " fill-opacity="1" fill-rule="nonzero"/><g clip-path="url(#af350126e1)"><path fill="#224da5" d="M 10.550781 61.398438 C 10.574219 59.851562 11.628906 56.152344 12.042969 54.472656 C 12.152344 54.035156 12.921875 52.875 12.636719 52.398438 C 11.816406 51.816406 11.707031 52.007812 11.285156 52.824219 C 10.765625 53.828125 8.988281 59.328125 8.96875 60.347656 C 8.957031 61.007812 9.84375 64.628906 10.199219 65.050781 C 10.722656 65.671875 13.46875 66.074219 12.988281 64.421875 C 12.71875 63.488281 10.515625 63.882812 10.550781 61.402344 Z M 10.550781 61.398438 " fill-opacity="1" fill-rule="nonzero"/></g></svg>