<svg id="Lovely_Cat" viewBox="0 0 88 88" xmlns="http://www.w3.org/2000/svg"><path d="m82.72167969 50.24414062-2.09667969-2.9765625c-3.15771484-4.48535156-9.02001953-5.98242188-13.94384766-3.56445312-3.41699219 1.68066406-5.70556641 4.94238281-6.12304688 8.7265625l-.40478516 3.66601562c-.00585938.05371094-.00732422.10742188-.00439453.16113281l1.11914062 21.51171875c.02246094.43359375.32177734.80273438.74072266.9140625.08544922.0234375.17236328.03417969.2578125.03417969.33349609 0 .65283203-.16796875.83984375-.45703125 4.50585938-6.97558594 6.65917969-15.04589844 6.22753906-23.33789062l-.06542969-1.26269531c-.05859375-1.12988281.55908203-2.18261719 1.57421875-2.68164062 1.20507812-.58984375 2.67138672-.24707031 3.48730469.81542969l1.65917969 2.1640625c.65722656.85742188 1.54589844 1.49511719 2.56933594 1.84375.92333984.31542969 1.91308594.25195312 2.78857422-.17871094.875-.4296875 1.52978516-1.17480469 1.84423828-2.09765625.37597656-1.1015625.20019531-2.328125-.46972656-3.28027344z" fill="#fcb677"/><path d="m56.14404297 42.43945312c-.18554688-.27441406-.49609375-.43945312-.828125-.43945312h-26.63183594c-.33203125 0-.64257812.16503906-.828125.43945312-.40283203.59570312-9.85595703 14.71679688-9.85595703 27.28808594 0 10.94921875 7.85058594 16.27246094 24 16.27246094s24-5.32324219 24-16.27246094c0-12.57128906-9.453125-26.69238281-9.85595703-27.28808594z" fill="#ffd899"/><circle cx="42" cy="58" fill="#fc83a6" r="5"/><path d="m58 64v14.32037354c1.82727051 1.09960937 3 3.78582764 3 5.67962646 0 3.3137207-3.58172607 4-8 4s-8-.6862793-8-4c0-1.89379883 1.17272949-4.58001709 3-5.67962646v-12.32037353s-12 0-12 0v12.32037354c1.82727051 1.09960938 3 3.78582764 3 5.67962646 0 3.3137207-3.58172607 4-8 4s-8-.6862793-8-4c0-1.89379883 1.17272949-4.58001709 3-5.67962646v-14.32037354h32z" fill="#ffd899"/><path d="m42 37c-10.65429688 0-19 3.953125-19 9s8.34570312 9 19 9 19-3.953125 19-9-8.34570312-9-19-9z" fill="#8f9aff"/><path d="m39.88720703 8.58300781v-.00097656c-3.56396484-3.26953125-10.88574219-6.7578125-15.32910156-6.57421875-1.36328125.06152344-2.39550781.46777344-3.06787109 1.20703125-3.01074219 3.30957031.87451172 14.5625 5.59130859 18.890625 1.71923828 1.578125 3.36132812 2.34765625 5.01220703 2.34765625.08007812 0 .16015625-.00195312.23974609-.00488281 2.69970703-.12207031 4.82470703-2.2265625 7.15380859-4.78710938 3.29443359-3.62109375 5.67480469-6.23828125.39990234-11.078125z" fill="#fcb677"/><path d="m33.15429688 9.88476562c-4.26269531-6.58203125-10.09912109-7.24414062-10.34521484-7.26953125l-.45214844-.0458374c-.32806396.17797852-.62805176.38299561-.86669922.64544678-3.01074219 3.30957031.87451172 14.5625 5.59130859 18.890625 1.71923828 1.578125 3.36132812 2.34765625 5.01220703 2.34765625.08007812 0 .16015625-.00195312.23974609-.00488281 1.76757812-.07989502 3.28845215-1.0177002 4.78186035-2.36883545-.64501953-5.57397461-2.20391846-9.48156738-3.96105957-12.19464111z" fill="#f48d64"/><path d="m71.87597656 8.91992188c-1.40820312-2.47167969-5.94726562-2.35839844-8.52929688-2.07128906-3.79248047.42382812-7.85449219 1.65917969-10.60058594 3.22265625-2.91943359 1.66210938-4.19873047 3.18359375-4.27783203 5.08496094-.07177734 1.73632812.89306641 3.43066406 2.24853516 5.81152344 1.27246094 2.234375 2.56152344 4.33496094 4.34033203 5.48535156.92871094.60058594 1.92089844.90136719 2.99023438.90136719 1.28613281 0 2.68359375-.43554688 4.21386719-1.30664062 5.55761719-3.16503906 11.82617188-13.24414062 9.61474609-17.12792969z" fill="#fcb677"/><path d="m55.05712891 26.453125c.92871094.60058594 1.92089844.90136719 2.99023438.90136719 1.28613281 0 2.68359375-.43554688 4.21386719-1.30664062 5.55761719-3.16503906 11.82617188-13.24414062 9.61474609-17.12792969-.17657471-.30999756-.40258789-.5791626-.66766357-.81256104l-.48516846-.05950928c-.21289062-.02734375-5.24511719-.58691406-10.45458984 3.67089844-3.3548584 2.74200439-5.9630127 6.77734375-7.82098389 12.04327393.77246094 1.09771729 1.61279297 2.04644775 2.60955811 2.69110107z" fill="#f48d64"/><path d="m71.421875 32.30371094c-2.26757812-1.65332031-3.96923828-3.98925781-4.79150391-6.57617188-2.49755859-7.85644531-9.70751953-16.30859375-20.18603516-17.48046875-10.46630859-1.16503906-19.37695312 5.47949219-23.54785156 12.59082031-1.37304688 2.34179688-3.54833984 4.24316406-6.12548828 5.35546875-.30419922.13085938-.52392578.40429688-.5859375.72949219-.0625.32519531.04003906.66113281.27441406.89550781l3.09814453 3.1015625-2.08544922.28027344c-.33740234.04589844-.62890625.25976562-.77294922.56835938-.14404297.30957031-.12109375.66992188.06152344.95800781.23095703.36425781 5.72607422 8.96289062 12.14355469 12.54296875 3.37255859 1.88476562 7.74121094 3.13769531 12.984375 3.72460938 1.82470703.20410156 3.56396484.30566406 5.21240234.30566406 3.08740234 0 5.85742188-.35742188 8.2734375-1.0703125 7.05029297-2.07519531 14.30908203-9.24707031 14.61474609-9.55078125.24169922-.24121094.34375-.58789062.27197266-.92089844-.07226562-.33300781-.30908203-.60644531-.62890625-.72558594l-1.97216797-.73339844 3.70703125-2.34179688c.27978516-.17675781.45410156-.48144531.46533203-.8125.01074219-.33105469-.14257812-.64648438-.41064453-.84082031z" fill="#ffd899"/><path d="m12.05761719 1.06542969c-2.09277344-1.66015625-4.48876953-1.15136719-5.82958984.02246094-.59521484.52148438-.99267578 1.15429688-1.17773438 1.82128906-.67871094-.15722656-1.43261719-.109375-2.18017578.17089844-1.66748047.62109375-3.25146485 2.48535156-2.78857422 5.10937499.96240234 5.49023438 8.18310547 5.92285156 10.43310547 5.92285156.36328125 0 .59765625-.01074219.65380859-.01464844.328125-.01757812.62646484-.1953125.79785156-.47460938.21289062-.34667969 5.15527344-8.5390625.09130859-12.55761719z" fill="#fc83a6"/><path d="m85.36572266 20.29101562c-.68505859-.25488281-1.37402344-.30566406-2.00390625-.17578125-.18310547-.609375-.55322266-1.18652344-1.09912109-1.66503906-1.26806641-1.11132812-3.53466797-1.59277344-5.51416016-.0234375-4.75976562 3.77832031-.13037109 11.45117188.06933594 11.77636719.17138672.27929688.46972656.45703125.79785156.47460938.05273438.00292969.27050781.01367188.60986328.01367188 2.10449219 0 8.87304688-.40625 9.77929688-5.56738281.4375-2.48242188-1.06152344-4.24511719-2.63916016-4.83300781z" fill="#fc83a6"/><path d="m29 83v4.94000244c-.71002197-.04003906-1.38000488-.11999512-2-.23999023v-4.70001221c0-.54998779.45001221-1 1-1s1 .45001221 1 1z" fill="#fcb677"/><path d="m35 83v4.70001221c-.61999512.11999512-1.28997803.19995117-2 .23999023v-4.94000244c0-.54998779.45001221-1 1-1s1 .45001221 1 1z" fill="#fcb677"/><path d="m57 83v4.70001221c-.61999512.11999512-1.28997803.19995117-2 .23999023v-4.94000244c0-.54998779.45001221-1 1-1s1 .45001221 1 1z" fill="#fcb677"/><path d="m51 83v4.94000244c-.71002197-.04003906-1.38000488-.11999512-2-.23999023v-4.70001221c0-.54998779.45001221-1 1-1s1 .45001221 1 1z" fill="#fcb677"/><g fill="#968777"><path d="m30.53173828 25.58105469c-.29345703 0-.58447266-.12890625-.78173828-.37597656-.34472656-.43164062-.27441406-1.06054688.15722656-1.40527344l5.52441406-4.4140625c.43066406-.34472656 1.06005859-.27441406 1.40527344.15722656.34472656.43164062.27441406 1.06054688-.15722656 1.40527344l-5.52441406 4.4140625c-.18408203.14746094-.40429688.21875-.62353516.21875z"/><path d="m33.62792969 29.92089844c-.22167969 0-.4453125-.01269531-.67041016-.03710938-.54931641-.06152344-.94433594-.55664062-.88330078-1.10546875.06103516-.54785156.55712891-.93847656 1.10449219-.8828125 2.19824219.25683594 4.17529297-1.33886719 4.42041016-3.53125.06152344-.54882812.55566406-.93554688 1.10498047-.8828125.54882812.06152344.94384766.55664062.88232422 1.10546875-.34277344 3.0625-2.94677734 5.33398438-5.95849609 5.33398438z"/><path d="m58.35839844 28.69140625c-.29345703 0-.58447266-.12890625-.78173828-.37597656l-4.41357422-5.52441406c-.34472656-.43164062-.27441406-1.06054688.15722656-1.40527344.43212891-.34570312 1.06152344-.27441406 1.40527344.15722656l4.41357422 5.52441406c.34472656.43164062.27441406 1.06054688-.15722656 1.40527344-.18408203.14746094-.40429688.21875-.62353516.21875z"/><path d="m54.93359375 32.33398438c-.03759766 0-.07519531-.00195312-.11279297-.00585938-3.28808594-.36914062-5.6640625-3.34277344-5.29589844-6.62988281.06152344-.54882812.56005859-.93652344 1.10498047-.8828125.54882812.06152344.94384766.55664062.88232422 1.10546875-.24511719 2.19140625 1.33886719 4.17382812 3.53076172 4.41894531.54882812.06152344.94433594.55664062.8828125 1.10546875-.05761719.51074219-.49023438.88867188-.9921875.88867188z"/><path d="m49.07421875 38.72851562c-.5546875-.05566406-1.04394531.33496094-1.10498047.8828125-.05957031.53125-.32177734 1.00683594-.73925781 1.34082031-.41796875.33203125-.94238281.48730469-1.47119141.42382812-.53076172-.05859375-1.00634766-.32128906-1.33984375-.73828125-.33349609-.41796875-.484375-.94042969-.42529297-1.47070312.06152344-.54882812-.33349609-1.04394531-.88232422-1.10546875-.55517578-.05566406-1.04394531.33496094-1.10498047.8828125-.12255859 1.09667969-1.10742188 1.89550781-2.20996094 1.765625-1.09570312-.12207031-1.88769531-1.11425781-1.765625-2.20996094.06152344-.54882812-.33349609-1.04394531-.8828125-1.10546875-.55419922-.05566406-1.04345703.33496094-1.10449219.8828125-.24511719 2.19238281 1.33886719 4.17480469 3.53076172 4.42089844.14990234.01660156.29882812.02441406.44628906.02441406 1.0246582 0 1.97515869-.39752197 2.69396973-1.05450439.04980469.07128906.08673096.14904785.14147949.21759033.66699219.83496094 1.61914062 1.359375 2.68066406 1.47851562.15185547.01660156.30273438.02539062.453125.02539062.90283203 0 1.77294922-.30371094 2.48828125-.875.83496094-.66699219 1.35986328-1.61914062 1.47851562-2.68066406.06152344-.54882812-.33349609-1.04394531-.88232422-1.10546875z"/></g><path d="m60 77.32324219v-13.32324219c0-.55273438-.44775391-1-1-1s-1 .44726562-1 1v13.79394531c0 .31152344.14550781.60546875.39306641.79492188.95062256.72589111 1.66955566 1.87286377 2.11151123 3.0355835.57836914-.42541504 1.10760498-.88421631 1.59368896-1.37255859-.49920654-1.08624268-1.19451904-2.1260376-2.0982666-2.9286499z" fill="#fcb677"/><path d="m25.60693359 78.58886719c.24755859-.18945312.39306641-.48339844.39306641-.79492188v-13.79394531c0-.55273438-.44775391-1-1-1s-1 .44726562-1 1v13.32324219c-.90374756.8026123-1.59906006 1.84240723-2.0982666 2.9286499.48608398.48834229 1.01531982.94714355 1.59368896 1.37255859.44195557-1.16271973 1.16088867-2.30969238 2.11151123-3.0355835z" fill="#fcb677"/><path d="m42 66c-3.30859375 0-6 2.69140625-6 6v5.79394531c0 .31152344.14550781.60546875.39306641.79492188 1.63183594 1.24609375 2.60693359 3.73046875 2.60693359 5.41113281 0 .7711792-.20281982 1.38909912-.54675293 1.89532471.50048828.02752686 1.0255127.03912354 1.54675293.05316162v.05151367h4v-.05151367c.52124023-.01403809 1.04626465-.02563477 1.54675293-.05316162-.34393311-.50622559-.54675293-1.12414551-.54675293-1.89532471 0-1.68066406.97509766-4.16503906 2.60693359-5.41113281.24755859-.18945312.39306641-.48339844.39306641-.79492188v-5.79394531c0-3.30859375-2.69140625-6-6-6z" fill="#fff1d4"/><path d="m46.23681641 31.67773438c-.75683594-.29003906-1.546875-.48339844-2.34863281-.57324219-.76855469-.08398438-1.546875-.07519531-2.31738281.02636719-1.62402344.21972656-2.88427734 1.50390625-3.06494141 3.12402344-.12353516 1.10351562.28564453 2.21582031 1.09326172 2.97460938l2.71582031 2.5546875c.19042969.17871094.43652344.27148438.68554688.27148438.17382812 0 .34912109-.04492188.50683594-.13867188l3.21289062-1.89160156c.95605469-.5625 1.60009766-1.55664062 1.71582031-2.60644531l.00048828-.00292969c.00292969-.01757812.00537109-.03515625.00732422-.05273438.17919922-1.60253906-.72802734-3.11816406-2.20703125-3.68554688z" fill="#f48d64"/></svg>