<svg id="Capa_1" enable-background="new 0 0 512.007 512.007" height="512" viewBox="0 0 512.007 512.007" width="512" xmlns="http://www.w3.org/2000/svg" fill="#224da5"><g><g><path d="m288.667 326.86c1.919 0 3.839-.732 5.303-2.196 5.146-5.146 10.499-6.938 14.688-4.92 3.731 1.802 8.215.23 10.013-3.499 1.798-3.731.231-8.215-3.5-10.013-10.133-4.884-22.024-1.959-31.808 7.824-2.929 2.93-2.929 7.678 0 10.607 1.465 1.465 3.384 2.197 5.304 2.197z"/><path d="m396.259 141.731c8.471 0 14.379 3.005 16.21 8.244 1.081 3.092 3.98 5.027 7.08 5.027.821 0 1.656-.136 2.475-.422 3.91-1.367 5.972-5.645 4.605-9.555-4.004-11.456-15.358-18.295-30.371-18.295-4.142 0-7.5 3.357-7.5 7.5s3.359 7.501 7.501 7.501z"/><path d="m85.274 369.732c2.887 0 5.639-1.677 6.873-4.489 3.402-7.758 8.524-11.948 14.061-11.534 4.127.321 7.736-2.77 8.055-6.9.319-4.129-2.77-7.736-6.9-8.055-12.101-.95-22.923 6.716-28.953 20.464-1.664 3.794.063 8.218 3.856 9.881.98.43 2.002.633 3.008.633z"/><path d="m167.869 358.908c-10.657 5.804-15.57 18.114-13.142 32.929.603 3.677 3.784 6.288 7.392 6.288.403 0 .812-.032 1.222-.1 4.088-.67 6.858-4.526 6.188-8.614-1.37-8.359.64-14.676 5.514-17.331 3.638-1.98 4.98-6.536 2.999-10.173-1.981-3.639-6.536-4.983-10.173-2.999z"/><path d="m351.729 83.767c15.745 8.384 31.179 12.602 46.136 12.602 7.795 0 15.462-1.142 22.976-3.431 40.153-12.228 64.397-54.272 72.957-71.781 2.012-4.116 1.851-8.941-.432-12.906-2.274-3.95-6.348-6.503-10.896-6.828-17.238-1.235-51.558-2.779-87.753.752-23.335 2.276-39.59 15.984-47.008 39.641-3.733 11.906-4.232 23.395-4.182 29.393-5.532 4.046-11.005 8.167-16.39 12.398 1.542-8.061 1.582-17.153-1.018-27.117-1.046-4.008-5.144-6.412-9.15-5.363-4.008 1.045-6.41 5.142-5.364 9.15 6.599 25.295-9.344 43.593-15.6 49.602-.751.679-1.674 1.495-2.422 2.178-28.783 26.316-55.012 55.519-78.366 87.319-.154.21-.304.423-.458.633-.158-3.613-.479-7.467-1.033-11.514-.677-4.944-1.748-10.409-3.381-16.191 10.859-9.438 17.617-24.445 19.191-42.95 1.483-17.449-2.014-32.518-10.112-43.576-7.745-10.575-19.467-17.032-33.005-18.181-20.567-1.762-37.909 9.055-46.746 28.573-17.065-5.481-35.695-6.254-54.17-1.922-4.033.945-6.535 4.981-5.589 9.015.945 4.032 4.98 6.531 9.014 5.589 26.249-6.155 52.803-.279 72.855 16.12 20.838 17.042 33.287 38.906 37.001 64.983.388 2.727.656 5.363.83 7.88-21.85-37.181-50.18-54.123-71.845-61.812-28.525-10.123-51.643-6.88-52.613-6.737-4.098.604-6.93 4.416-6.326 8.514.604 4.099 4.412 6.929 8.514 6.326.198-.03 19.654-2.748 44.081 5.579-5.112.748-11.18 1.278-18.147 1.278-4.142 0-7.5 3.357-7.5 7.5s3.358 7.5 7.5 7.5c19.994 0 33.696-3.889 39.954-6.14 9.518 5.74 18.196 12.904 25.998 21.49-7.92 2.386-20.729 4.379-35.898-.244-3.962-1.213-8.154 1.025-9.361 4.987-1.208 3.962 1.026 8.153 4.988 9.36 8.183 2.494 15.844 3.424 22.725 3.424 12.035 0 21.669-2.845 27.496-5.146 6.246 8.762 11.802 18.624 16.64 29.589-25.81 14.13-43.616 19.051-55.74 15.466-14.353-4.245-23.119-20.139-37.377-47.865-10.156-19.749-22.693-30.38-37.261-31.597-13.59-1.148-25.455 6.452-33.208 13.268-3.482-22.242 11.549-40.974 28.678-51.953 3.487-2.236 4.501-6.875 2.266-10.362s-6.873-4.501-10.362-2.267c-31.685 20.309-43.825 52.527-30.928 82.077.417.944 10.491 23.311 32.854 37.011 2.086 1.277 4.423 1.922 6.767 1.922 1.971 0 3.947-.455 5.782-1.373 4.002-2 6.644-5.856 7.067-10.317.677-7.141 2.469-19.594 7.124-32.025 2.713 3.393 5.343 7.542 7.88 12.474 14.113 27.443 25.26 49.119 46.463 55.39 4.03 1.192 8.276 1.8 12.835 1.8 10.042-.001 21.595-2.968 35.59-9.134-14.768 24.42-28.061 50.07-39.743 76.751-4.401-4.38-9.69-7.987-15.711-10.627-18.307-8.03-37.691-5.117-53.181 7.992-3.162 2.676-3.556 7.408-.88 10.569 2.676 3.164 7.408 3.556 10.57.88 11.11-9.402 24.416-11.43 37.466-5.705 8.098 3.552 14.124 9.26 17.648 16.633-1.295 1.599-2.509 3.279-3.611 5.06-6.404 10.346-9.282 23.329-8.496 37.983-12.378 6.256-21.239 17.37-25.869 32.12-6.136.765-12.526-.211-18.66-2.901-21.048-9.231-26.953-31.758-15.41-58.787 1.626-3.81-.143-8.216-3.952-9.843-3.81-1.625-8.216.143-9.843 3.952-7.452 17.449-8.987 34.156-4.441 48.313 4.334 13.5 14.144 24.189 27.622 30.101 6.712 2.943 13.696 4.434 20.614 4.433.319 0 .636-.02.954-.026-.377 3.458-.575 7.046-.575 10.763 0 6.567.621 12.764 1.81 18.543-5.056 25.772-6.308 41.243-6.36 41.901-.324 4.129 2.759 7.736 6.888 8.062.201.016.399.023.598.023 3.874 0 7.157-2.982 7.468-6.909.008-.1.536-6.564 2.243-17.9.785 1.052 1.591 2.083 2.446 3.064 9.413 10.805 22.782 16.756 37.646 16.756s28.234-5.951 37.646-16.756c9.348-10.731 14.516-25.806 15.042-43.733 9.143-3.95 16.76-10.45 22.057-19.008 5.374-8.682 8.261-19.225 8.588-31.051 11.205-4.234 21.572-10.573 30.946-18.908 7.81 5.771 16.96 8.841 26.531 8.841 1.03 0 2.067-.035 3.105-.106 13.672-.941 27.445-7.983 39.829-20.367 5.149-5.149 9.359-10.54 12.607-16.062 8.699 1.4 17.636 1.155 27.149-.733 39.764-7.886 64.466 2.4 78.187 12.421 2.471 1.805 5.347 2.719 8.241 2.719 2.294 0 4.601-.575 6.724-1.737 4.807-2.632 7.583-7.671 7.244-13.159-5.688-90.439-58.368-124.048-89.263-136.031-3.864-1.498-8.207.418-9.705 4.28-1.498 3.861.418 8.206 4.28 9.704 27.318 10.597 73.746 40.355 79.574 120.865-16.435-11.374-44.693-22.403-88.202-13.774-6.336 1.259-12.311 1.606-18.085 1.084.849-3.129 1.401-6.269 1.616-9.406.9-13.077-3.896-25.57-13.503-35.178-9.607-9.606-22.103-14.396-35.178-13.504-8.228.567-16.49 3.358-24.467 8.178-9.002-8.337-18.801-16.076-30.12-21.238 25.19-8.619 65.555-18.456 101.751-9.751 2.155 10.623 8.572 36.053 23.358 54.387 1.482 1.838 3.652 2.792 5.842 2.792 1.653 0 3.317-.544 4.704-1.662 3.225-2.601 3.73-7.322 1.13-10.546-9.68-12.003-15.317-28.244-18.29-39.389 20.456 8.95 38.361 25.555 49.639 53.994 1.167 2.943 3.989 4.737 6.974 4.737.92 0 1.856-.171 2.763-.53 3.85-1.527 5.733-5.886 4.207-9.736-9.384-23.661-23.578-41.826-42.187-53.988-15.654-10.231-34.489-16.25-55.98-17.889-18.327-1.399-36.667.552-52.931 3.754 19.092-14.302 42.86-21.353 67.233-19.828 4.14.249 7.694-2.886 7.951-7.02s-2.885-7.694-7.02-7.951c-28.862-1.8-57.037 6.88-79.333 24.431-31.794 25.018-42.319 27.732-43.686 27.995-17.215 3.352-32.254 9.022-42.794 14.909 14.084-25.371 29.938-49.513 47.037-72.087.067-.106 6.857-10.727 23.39-21.589 14.363-9.437 39.057-20.879 76.68-23.646.477 14.113 6.358 26.765 16.708 35.783 11.335 9.876 27.511 15.096 46.78 15.096s35.444-5.22 46.779-15.096c10.804-9.413 16.754-22.782 16.754-37.645s-5.95-28.231-16.754-37.645c-11.335-9.876-27.511-15.096-46.779-15.096s-35.445 5.22-46.78 15.096c-7.465 6.504-12.61 14.898-15.078 24.367-25.58 1.575-46.043 6.834-62.192 13.452 24.206-25.749 50.735-49.207 79.519-70.292zm10.293-37.463c5.552-17.706 17.042-27.53 34.152-29.199 33.81-3.3 66.01-2.024 83.314-.854-8.351 16.603-29.67 52.183-63.017 62.339-16.226 4.939-33.61 3.19-51.794-5.15 3.098-2.339 7.049-5.136 11.855-8.187 4.664 1.351 13.523 3.201 27.073 3.201 3.78 0 7.929-.145 12.448-.484 4.13-.31 7.228-3.909 6.917-8.04-.311-4.13-3.9-7.226-8.041-6.917-6.549.491-12.168.519-16.902.298 10.205-4.951 22.232-9.86 36.067-14.012 3.967-1.19 6.218-5.372 5.028-9.339-1.19-3.968-5.375-6.22-9.339-5.028-33.412 10.026-56.988 24.151-70.476 33.813.52-3.857 1.362-8.125 2.715-12.441zm-302.232 166.171c-11.485-7.935-18.719-18.666-22.038-24.417 5.632-6.031 16.142-14.704 26.478-13.802 1.701.146 3.381.544 5.038 1.191-5.852 13.72-8.388 27.84-9.478 37.028zm91.702 279.543c-23.279 0-37.74-18.6-37.74-48.54 0-19.192 6.022-33.941 16.81-41.931 1.23 5.548 2.891 10.711 4.942 15.462-7.097 5.536-11.166 14.91-11.166 26.472 0 4.143 3.358 7.5 7.5 7.5s7.5-3.357 7.5-7.5c0-5.663 1.349-10.172 3.804-13.092 2.622 3.511 5.559 6.627 8.796 9.309 8.842 7.322 19.687 11.159 31.192 11.159 1.919 0 3.858-.116 5.808-.332-2.119 25.779-16.055 41.493-37.446 41.493zm37.88-56.678c-10.474 1.716-20.109-.771-27.866-7.195-8.749-7.245-14.706-19.208-17.227-34.596-4.842-29.543 6.421-50.234 29.394-53.999 2.152-.353 4.268-.528 6.34-.528 8.012 0 15.363 2.62 21.526 7.724 8.749 7.245 14.706 19.208 17.228 34.596 4.839 29.539-6.424 50.234-29.395 53.998zm118.579-142.957c.712-.049 1.418-.073 2.121-.073 7.995 0 15.364 3.162 21.421 9.22 6.589 6.589 9.751 14.729 9.146 23.541-.688 10.006-6.224 20.467-16.009 30.251s-20.247 15.321-30.251 16.01c-8.808.606-16.952-2.556-23.542-9.146-6.589-6.589-9.751-14.729-9.146-23.541.688-10.006 6.225-20.467 16.009-30.251 9.784-9.786 20.245-15.322 30.251-16.011zm-79.097-19.139c15.547 1.61 28.201 9.634 41.407 21.535-1.064.969-2.123 1.962-3.169 3.007-12.384 12.384-19.427 26.156-20.367 39.829-.725 10.536 2.253 20.69 8.459 29.263-6.604 5.767-13.744 10.388-21.36 13.785-.085-.583-.16-1.161-.256-1.748-3.117-19.015-10.884-34.134-22.463-43.723-11.037-9.139-25.192-12.847-39.859-10.445-4.616.757-8.981 2.084-13.042 3.913 3.334-7.629 6.803-15.14 10.378-22.558 2.249-2.988 19.781-24.652 60.272-32.858zm-54.947-157.666c1.186-1.99 2.938-3.725 5.534-4.392 4.012-1.031 6.429-5.119 5.398-9.131-1.03-4.012-5.119-6.432-9.13-5.397-5.69 1.461-10.447 4.942-13.826 9.929-2.71-1.719-5.491-3.303-8.339-4.736 6.257-13.536 17.505-20.505 31.605-19.308 9.286.787 16.954 4.971 22.173 12.098 5.926 8.092 8.439 19.656 7.268 33.442-1.003 11.787-4.46 21.569-9.927 28.507-6.082-13.643-15.69-28.011-30.756-41.012zm222.352.566c29.937 0 48.534 14.461 48.534 37.74s-18.597 37.74-48.534 37.74-48.534-14.461-48.534-37.74 18.597-37.74 48.534-37.74z"/></g></g></svg>