<?xml version="1.0" encoding="UTF-8"?>
<svg id="Layer_1" data-name="Layer 1" xmlns="http://www.w3.org/2000/svg" xmlns:xlink="http://www.w3.org/1999/xlink" viewBox="540 230 180 180">
  <defs>
    <style>
      .cls-1 {
        fill: none;
      }

      .cls-2 {
        clip-path: url(#clippath-1);
      }

      .cls-3 {
        fill: #224da5;
      }

      .cls-4 {
        clip-path: url(#clippath-2);
      }

      .cls-5 {
        clip-path: url(#clippath);
      }
    </style>
    <clipPath id="clippath">
      <rect class="cls-1" x="556.95" y="244" width="137.42" height="153.58"/>
    </clipPath>
    <clipPath id="clippath-1">
      <rect class="cls-1" x="552.9" y="245.68" width="145.15" height="139.11" transform="translate(-60.13 458.53) rotate(-38.55)"/>
    </clipPath>
    <clipPath id="clippath-2">
      <rect class="cls-1" x="552.9" y="245.68" width="145.15" height="139.11" transform="translate(-60.13 458.53) rotate(-38.55)"/>
    </clipPath>
  </defs>
  <g class="cls-5">
    <g class="cls-2">
      <g class="cls-4">
        <path class="cls-3" d="M608.6,357.45c-7.99,9.44-16.96,15.47-29.18,10.83-9.76-3.73-15.25-11.46-15.88-22.01-.76-11.97,4.45-19.17,18.03-25.77-2.4-.73-4.67-1.26-6.88-2.05-5.34-1.89-10.01-4.8-13.17-9.69-8.11-12.41.63-28.39,13.74-31.17,7.74-1.64,14.94-.09,21.69,3.85.79.47,1.55.98,2.9,1.89-.47-1.33-.69-2.05-.98-2.72-6.13-13.55-.06-28.92,13.39-34.07,12.35-4.7,23.97,1.23,26.84,14.18.98,4.36.73,8.97,1.04,13.48.03.76-.09,1.52-.19,3.09,4.07-6.54,8.71-11.4,15.03-14.4,8.11-3.82,17.59-1.64,23.74,4.83,10.42,10.93,8.78,27.75-2.4,37.42-2.78,2.4-5.75,4.61-8.46,6.79,7.33.66,14.68,3,19.8,9.79,5.08,6.82,6.35,14.27,2.87,22.13-5.81,13.07-20.43,21.28-38.87,11.68.19,1.33.35,2.34.51,3.38.85,6.41.95,12.82-1.71,18.85-3.6,8.15-12.38,13.48-21.03,13.07-8.78-.44-16.48-6.63-19.73-15.88-1.93-5.46-2.27-10.42-1.11-17.52Z"/>
      </g>
    </g>
  </g>
</svg>