<?xml version="1.0" encoding="UTF-8"?>
<svg id="Layer_1" data-name="Layer 1" xmlns="http://www.w3.org/2000/svg" viewBox="0 0 44.69 31.36">
  <defs>
    <style>
      .cls-1 {
        fill: #224da5;
      }
    </style>
  </defs>
  <path class="cls-1" d="M2.6,26.83c-.29-.19-.63-.51-1-.96-.36-.46-.68-.96-.96-1.52-.28-.57-.47-1.13-.58-1.67-.11-.55-.06-1.04.15-1.46.21-.43.61-.73,1.23-.92.44-.11.88-.04,1.29.21.43.25.83.55,1.21.9.39.35.74.6,1.06.77.33.16.61.1.85-.17.25-.28.44-.9.56-1.88.17-1.13.21-2.26.15-3.4-.07-1.14-.18-2.28-.31-3.42-.14-1.15-.22-2.29-.23-3.42-.03-.64-.07-1.36-.13-2.17-.04-.8-.06-1.63-.04-2.46.03-.84.15-1.64.38-2.38.22-.75.59-1.38,1.1-1.9C8.08.26,8.84-.08,9.62.02c.79.1,1.46.47,2.02,1.1.57.64.9,1.41,1,2.31.26,1.96.35,3.94.27,5.94s-.16,3.99-.23,5.96c-.06,1.03-.08,2.18-.06,3.44.01,1.25-.06,2.47-.23,3.67-.16,1.2-.54,2.24-1.15,3.15-.61.92-1.44,1.56-2.48,1.94-1.03.38-2.1.49-3.21.38-1.11-.13-2.1-.48-2.96-1.06Z"/>
  <path class="cls-1" d="M23.81,26.62c-1.22.93-2.47,1.36-3.75,1.31-1.27-.05-2.39-.5-3.38-1.33-.99-.84-1.7-1.95-2.15-3.31-.36-1.28-.54-2.63-.52-4.04.03-1.43.3-2.8.83-4.1.53-1.3,1.31-2.4,2.35-3.29.71-.58,1.55-.98,2.52-1.21.98-.23,1.95-.27,2.9-.1.96.16,1.76.54,2.42,1.15.67.6,1.03,1.47,1.08,2.63.39.97.65,2.03.77,3.17.14,1.14.13,2.28-.04,3.42-.16,1.13-.48,2.19-.98,3.19s-1.19,1.85-2.06,2.54ZM22.42,21.66c.26-.07.46-.3.6-.71.14-.4.23-.86.27-1.38.05-.53.07-1.02.06-1.48-.02-.47-.04-.78-.06-.94-.22.17-.43.38-.63.63-.2.25-.35.49-.48.73-.46.96-.71,1.77-.75,2.44-.03.66.3.89.98.71Z"/>
  <path class="cls-1" d="M41.75,30.45c-.54-.63-.95-1.39-1.23-2.29-.28-.9-.49-1.82-.65-2.77-.14-.94-.29-1.8-.44-2.58-.1-.51-.22-1.03-.38-1.56-.14-.54-.38-.98-.71-1.33-.32-.34-.82-.48-1.5-.4-.57.04-1.09.24-1.56.58-.46.33-.89.7-1.27,1.1-.54.49-.83.91-.88,1.27-.03.35-.04.86-.04,1.54-.03.49-.12,1.03-.27,1.63-.14.6-.35,1.11-.65,1.54-.29.43-.66.68-1.1.73-.43.04-.94-.24-1.52-.85-.57-.58-.96-1.32-1.17-2.21-.21-.9-.31-1.82-.29-2.77.01-.96.05-1.8.1-2.54.04-.8.13-1.66.25-2.56.14-.9.36-1.78.67-2.63.3-.86.74-1.59,1.31-2.21.51-.55.94-.82,1.29-.81.36.02.66.2.9.56.25.36.44.81.56,1.35.14.54.23,1.09.29,1.65.07.54.1.98.1,1.31.73-.71,1.53-1.27,2.38-1.69.86-.43,1.71-.67,2.56-.71.86-.05,1.66.15,2.4.6.75.45,1.36,1.2,1.85,2.25.54,1.14.94,2.39,1.21,3.75.28,1.35.46,2.71.56,4.08.09,1.36.15,2.67.15,3.92,0,.46-.07.92-.21,1.4-.14.48-.33.88-.58,1.17-.24.29-.54.42-.9.38-.36-.03-.78-.33-1.25-.9Z"/>
</svg>