<?xml version="1.0" encoding="UTF-8"?>
<svg id="Layer_1" data-name="Layer 1" xmlns="http://www.w3.org/2000/svg" xmlns:xlink="http://www.w3.org/1999/xlink" viewBox="0 0 215.75 151.4">
  <defs>
    <style>
      .cls-1 {
        fill: none;
      }

      .cls-2 {
        clip-path: url(#clippath-1);
      }

      .cls-3 {
        fill: #224da5;
      }

      .cls-4 {
        clip-path: url(#clippath-2);
      }

      .cls-5 {
        clip-path: url(#clippath);
      }
    </style>
    <clipPath id="clippath">
      <rect class="cls-1" width="215.75" height="151.4"/>
    </clipPath>
    <clipPath id="clippath-1">
      <polygon class="cls-1" points="-11.62 118.52 91.3 -16.81 240.16 96.4 137.25 231.73 -11.62 118.52"/>
    </clipPath>
    <clipPath id="clippath-2">
      <polygon class="cls-1" points="-11.62 118.52 91.3 -16.81 240.16 96.4 137.25 231.73 -11.62 118.52"/>
    </clipPath>
  </defs>
  <g class="cls-5">
    <g class="cls-2">
      <g class="cls-4">
        <path class="cls-3" d="M214.76,130.55s-.04.04-.06.07c-6.06,7.67-15.11,12.92-26.14,15.17-9.45,1.94-19.97,1.67-30.44-.75-9.67-2.23-18.94-5.84-27.9-9.34-2.2-.84-4.41-1.72-6.64-2.56-2.26,3.59-4.97,7.13-8.34,10.08-3.42,2.99-7.44,5.16-11.62,6.28-4.75,1.26-9.45,1.05-13.59-.58-4.92-1.94-8.99-6.46-10.57-11.8-1.39-4.7-.71-9.46,1.88-13.11,4.63-6.49,13.57-8.53,25.18-5.74,4.44,1.08,8.77,2.42,13.04,3.9.44-.86.9-1.73,1.36-2.63,4.27-8.32,7.91-15.86,9.05-23.77,1.24-8.56-.96-16.47-5.88-21.14-2.38-2.26-5.34-3.79-8.61-5.01-12.33,14.45-30.98,23.67-50.09,22.99-3.84-.15-7.63-.64-11.3-1.09-5.68-.74-11.03-1.43-16.28-.84-15.97,1.79-29.41,18.02-28.17,34.05.18,2.45-1.66,4.58-4.11,4.78-2.44.19-4.58-1.64-4.78-4.1-1.6-20.88,15.26-41.24,36.06-43.59,6.31-.69,12.46.09,18.42.86,3.61.47,7.04.9,10.45,1.03,15.14.53,29.94-6.18,40.45-16.96-4.15-1.18-8.38-2.45-12.38-4.49-7.39-3.76-13.5-10.56-16.72-18.66-3.42-8.52-3.36-17.37.15-24.94,3.71-8.04,11.96-14.08,21.51-15.76,8.9-1.55,17.28.84,22.98,6.59,7.19,7.26,9.94,18.88,7.53,31.89-1.38,7.44-4.26,14.49-8.28,20.82,3.33,1.45,6.49,3.31,9.29,5.97,6.99,6.65,10.2,17.45,8.56,28.86-1.33,9.27-5.29,17.54-9.94,26.58-.28.53-.56,1.08-.86,1.64,1.83.71,3.65,1.4,5.46,2.11,8.66,3.39,17.64,6.88,26.67,8.96,15.81,3.67,36.62,2.62,47.59-11.27,1.54-1.94,4.33-2.26,6.25-.74,1.92,1.54,2.26,4.3.8,6.22ZM88.71,129.03c-.04.06-.07.1-.12.15-1.36,1.92-.96,4.23-.61,5.43.81,2.72,2.9,5.1,5.29,6.05,5.43,2.14,11.99-.53,16.07-4.11,2.13-1.88,3.95-4.05,5.6-6.51-3.49-1.17-7.01-2.23-10.54-3.09-3.61-.86-12.3-2.38-15.7,2.08ZM87.1,19.4c-.72.96-1.35,1.97-1.83,3.03-5,10.82.96,26.05,12.54,31.92,3.61,1.83,7.67,2.99,11.99,4.2.83.24,1.66.47,2.5.71,4.01-5.84,6.86-12.43,8.16-19.47.89-4.78,2.16-16.68-5.1-24-3.61-3.65-9.12-5.13-15.11-4.08-5.41.95-10.19,3.8-13.14,7.69Z"/>
      </g>
    </g>
  </g>
</svg>