<?xml version="1.0" encoding="UTF-8"?>
<svg id="Layer_1" data-name="Layer 1" xmlns="http://www.w3.org/2000/svg" xmlns:xlink="http://www.w3.org/1999/xlink" viewBox="0 0 200.28 169.66" fill="#224da5">
  <defs>
    <style>
      .cls-1 {
        fill: none;
      }

      .cls-2 {
        fill: #224da5;
      }

      .cls-3 {
        clip-path: url(#clippath);
      }
    </style>
    <clipPath id="clippath">
      <rect class="cls-1" width="200.28" height="169.66"/>
    </clipPath>
  </defs>
  <g class="cls-3">
    <path class="cls-2" d="M195.71,168.34c-.39,0-.76-.05-1.15-.12-21.71-5.02-43.16-12.09-63.71-20.98-11.26-4.87-22.29-10.29-33-16.25-1.53,1.75-3.21,3.43-5.07,5.02-4.9,4.23-10.92,7.83-17.45,10.42-12.24,4.85-25.17,6.3-37.67,7.7-4.76.53-10.95,1.03-16.75.16-6.91-1.04-12.23-3.9-15.82-8.45C1.47,141.2,0,135.19.87,128.44c.86-6.57,3.63-12.37,5.8-16.08,2.84-4.84,6.04-8.95,9.5-12.24,4.23-4.02,8.86-6.8,13.79-8.3,17.39-5.27,34.13,5.93,47.57,14.93,5.66,3.77,11.4,7.39,17.23,10.84.33-.67.66-1.36.94-2.03,3.87-9.34,2.9-19.89,1.89-31.05-.42-4.66-.86-9.5-.92-14.27-.19-12.68,2.62-25.22,8.11-36.25,5.93-11.92,14.66-21.26,25.25-27.01,12.01-6.54,27.29-7.69,40.9-3.1,11.99,4.04,21.18,11.99,25.86,22.4,1.15,2.56.02,5.55-2.54,6.71-2.54,1.14-5.54.02-6.69-2.54-3.52-7.81-10.57-13.85-19.87-16.97-10.98-3.7-23.26-2.81-32.83,2.4-17.39,9.45-28.42,30.74-28.07,54.22.05,4.4.45,8.83.89,13.51,1.08,11.9,2.18,24.21-2.62,35.84-.45,1.08-.95,2.14-1.5,3.2,29.24,16.16,60.5,28.15,93.27,35.73,2.71.62,4.41,3.35,3.79,6.07-.51,2.34-2.6,3.91-4.9,3.91ZM39.16,100.62c-2.11,0-4.2.28-6.25.9-8.14,2.46-14.01,10.04-17.48,15.97-4.07,6.94-6.83,16.39-2.37,22.09,4.52,5.77,14.41,5.52,23.47,4.51,11.84-1.33,24.08-2.7,35.06-7.07,6.89-2.73,12.79-6.6,17.23-11.21-5.74-3.4-11.37-6.94-16.91-10.64-10.29-6.89-21.76-14.55-32.75-14.55Z"/>
  </g>
</svg>