<?xml version="1.0" encoding="UTF-8"?>
<svg id="Layer_1" data-name="Layer 1" xmlns="http://www.w3.org/2000/svg" viewBox="0 0 38.29 20.65">
  <defs>
    <style>
      .cls-1 {
        fill: #224da5;
      }
    </style>
  </defs>
  <path class="cls-1" d="M6.83,19.78c-.52-.5-.95-1.07-1.29-1.73-.33-.67-.63-1.35-.88-2.06-.24-.72-.5-1.39-.79-2-.17-.38-.44-.92-.81-1.63-.36-.72-.75-1.54-1.17-2.46s-.79-1.86-1.13-2.83c-.32-.98-.55-1.93-.69-2.83C-.06,3.34-.02,2.55.21,1.89.43,1.21.89.72,1.6.43c.65-.29,1.28-.23,1.88.17.61.39,1.17.99,1.69,1.81.53.81,1.01,1.72,1.46,2.75.46,1.03.85,2.06,1.19,3.08.34,1.03.65,1.95.9,2.75.25.81.43,1.38.54,1.71.18-.42.42-1.05.71-1.92.29-.86.63-1.82,1.02-2.88.39-1.07.83-2.11,1.33-3.15.5-1.03,1.04-1.92,1.63-2.69.59-.78,1.23-1.3,1.9-1.56.67-.26,1.38-.15,2.15.33.83.53,1.32,1.24,1.48,2.15.15.89.07,1.89-.23,3-.31,1.11-.75,2.25-1.33,3.42s-1.22,2.3-1.92,3.4c-.7,1.08-1.35,2.06-1.96,2.94-.61.86-1.09,1.54-1.44,2.02-.43.66-.95,1.27-1.54,1.83-.6.56-1.25.9-1.96,1.02s-1.46-.15-2.25-.83Z"/>
  <path class="cls-1" d="M20.98,3.22c-.29-.54-.39-1.07-.27-1.58.11-.51.33-.92.67-1.23.34-.32.74-.45,1.19-.4.46.04.88.35,1.27.94.42.58.57,1.15.46,1.69-.11.54-.36.97-.75,1.29-.39.31-.83.43-1.31.35-.49-.07-.91-.42-1.25-1.06ZM23.64,20.22c-.56.39-1.02.51-1.4.38-.36-.15-.65-.46-.85-.92-.21-.47-.37-1-.48-1.58-.11-.58-.18-1.14-.21-1.67-.02-.53-.04-.92-.06-1.17-.03-.82-.02-1.65.02-2.5.04-.84.08-1.69.13-2.52.03-.43.04-.92.04-1.46s.05-1.08.17-1.58c.11-.5.33-.91.67-1.23.57-.57,1.05-.82,1.44-.75.39.06.7.31.94.75.25.43.44.95.58,1.56.14.6.23,1.18.29,1.75.05.57.09,1,.13,1.29.13,1,.15,2,.06,3-.07.99-.18,1.98-.31,2.98-.06.33-.11.75-.17,1.25-.04.49-.14.95-.27,1.4-.13.43-.36.77-.71,1.02Z"/>
  <path class="cls-1" d="M31.55,20.47c-.66-.22-1.19-.63-1.6-1.23-.42-.59-.74-1.25-.98-1.96-.22-.71-.43-1.36-.63-1.98-.16-.51-.39-1.25-.69-2.21-.31-.97-.6-2.03-.88-3.19-.27-1.17-.44-2.3-.52-3.42-.08-1.11,0-2.07.25-2.9.26-.83.78-1.4,1.54-1.69.69-.28,1.32-.17,1.88.33.55.49,1.03,1.18,1.44,2.08.4.91.74,1.88,1.02,2.92.28,1.03.51,1.99.69,2.88.18.88.32,1.51.42,1.9.03-.15.07-.51.13-1.08.07-.57.17-1.24.31-2.02.15-.79.33-1.58.54-2.38s.46-1.47.77-2.04c.3-.58.67-.94,1.08-1.08.42-.15.88.02,1.4.5.3.29.48.72.54,1.29.05.56.03,1.16-.08,1.81-.1.64-.22,1.25-.38,1.83-.14.57-.24,1.04-.31,1.4-.27,1.21-.58,2.43-.94,3.65-.35,1.21-.74,2.41-1.19,3.58-.2.53-.46,1.07-.79,1.63-.32.56-.73.98-1.23,1.27-.49.29-1.08.32-1.79.1Z"/>
</svg>